<svg width="31" height="31" viewBox="0 0 31 31" fill="none" xmlns="http://www.w3.org/2000/svg">
<g filter="url(#filter0_d)">
<path d="M6 12.5C6 7.2533 10.2533 3 15.5 3C20.7467 3 25 7.2533 25 12.5C25 17.7467 20.7467 22 15.5 22C10.2533 22 6 17.7467 6 12.5Z" fill="white"/>
</g>
<path d="M20.25 13.1786H16.1786V17.25H14.8214V13.1786H10.75V11.8214H14.8214V7.75H16.1786V11.8214H20.25V13.1786Z" fill="#F26A32"/>
<path d="M20.25 13.1786H16.1786V17.25H14.8214V13.1786H10.75V11.8214H14.8214V7.75H16.1786V11.8214H20.25V13.1786Z" stroke="#48BEEB"/>
<defs>
<filter id="filter0_d" x="0" y="0" width="31" height="31" filterUnits="userSpaceOnUse" color-interpolation-filters="sRGB">
<feFlood flood-opacity="0" result="BackgroundImageFix"/>
<feColorMatrix in="SourceAlpha" type="matrix" values="0 0 0 0 0 0 0 0 0 0 0 0 0 0 0 0 0 0 127 0"/>
<feOffset dy="3"/>
<feGaussianBlur stdDeviation="3"/>
<feColorMatrix type="matrix" values="0 0 0 0 0 0 0 0 0 0 0 0 0 0 0 0 0 0 0.1 0"/>
<feBlend mode="normal" in2="BackgroundImageFix" result="effect1_dropShadow"/>
<feBlend mode="normal" in="SourceGraphic" in2="effect1_dropShadow" result="shape"/>
</filter>
</defs>
</svg>
