<svg width="16" height="16" viewBox="0 0 16 16" fill="none" xmlns="http://www.w3.org/2000/svg">
<path d="M4.5 7.78125H3.5C3.24112 7.78125 3.03125 7.99112 3.03125 8.25C3.03125 8.50888 3.24112 8.71875 3.5 8.71875H4.5C4.75888 8.71875 4.96875 8.50888 4.96875 8.25C4.96875 7.99112 4.75888 7.78125 4.5 7.78125Z" fill="url(#paint0_linear)"/>
<path d="M4.5 9.78125H3.5C3.24112 9.78125 3.03125 9.99112 3.03125 10.25C3.03125 10.5089 3.24112 10.7188 3.5 10.7188H4.5C4.75888 10.7188 4.96875 10.5089 4.96875 10.25C4.96875 9.99112 4.75888 9.78125 4.5 9.78125Z" fill="url(#paint1_linear)"/>
<path d="M4.5 11.7812H3.5C3.24112 11.7812 3.03125 11.9911 3.03125 12.25C3.03125 12.5089 3.24112 12.7188 3.5 12.7188H4.5C4.75888 12.7188 4.96875 12.5089 4.96875 12.25C4.96875 11.9911 4.75888 11.7812 4.5 11.7812Z" fill="url(#paint2_linear)"/>
<path d="M8.5 7.78125H7.5C7.24112 7.78125 7.03125 7.99112 7.03125 8.25C7.03125 8.50888 7.24112 8.71875 7.5 8.71875H8.5C8.75888 8.71875 8.96875 8.50888 8.96875 8.25C8.96875 7.99112 8.75888 7.78125 8.5 7.78125Z" fill="url(#paint3_linear)"/>
<path d="M8.5 9.78125H7.5C7.24112 9.78125 7.03125 9.99112 7.03125 10.25C7.03125 10.5089 7.24112 10.7188 7.5 10.7188H8.5C8.75888 10.7188 8.96875 10.5089 8.96875 10.25C8.96875 9.99112 8.75888 9.78125 8.5 9.78125Z" fill="url(#paint4_linear)"/>
<path d="M8.5 11.7812H7.5C7.24112 11.7812 7.03125 11.9911 7.03125 12.25C7.03125 12.5089 7.24112 12.7188 7.5 12.7188H8.5C8.75888 12.7188 8.96875 12.5089 8.96875 12.25C8.96875 11.9911 8.75888 11.7812 8.5 11.7812Z" fill="url(#paint5_linear)"/>
<path d="M12.5 7.78125H11.5C11.2411 7.78125 11.0312 7.99112 11.0312 8.25C11.0312 8.50888 11.2411 8.71875 11.5 8.71875H12.5C12.7589 8.71875 12.9688 8.50888 12.9688 8.25C12.9688 7.99112 12.7589 7.78125 12.5 7.78125Z" fill="url(#paint6_linear)"/>
<path d="M12.5 9.78125H11.5C11.2411 9.78125 11.0312 9.99112 11.0312 10.25C11.0312 10.5089 11.2411 10.7188 11.5 10.7188H12.5C12.7589 10.7188 12.9688 10.5089 12.9688 10.25C12.9688 9.99112 12.7589 9.78125 12.5 9.78125Z" fill="url(#paint7_linear)"/>
<path d="M12.5 11.7812H11.5C11.2411 11.7812 11.0312 11.9911 11.0312 12.25C11.0312 12.5089 11.2411 12.7188 11.5 12.7188H12.5C12.7589 12.7188 12.9688 12.5089 12.9688 12.25C12.9688 11.9911 12.7589 11.7812 12.5 11.7812Z" fill="url(#paint8_linear)"/>
<path d="M14.5938 2.03125H13.4688V1.25C13.4688 0.991125 13.2589 0.78125 13 0.78125C12.7411 0.78125 12.5312 0.991125 12.5312 1.25V2.03125H8.46875V1.25C8.46875 0.991125 8.25887 0.78125 8 0.78125C7.74113 0.78125 7.53125 0.991125 7.53125 1.25V2.03125H3.46875V1.25C3.46875 0.991125 3.25887 0.78125 3 0.78125C2.74113 0.78125 2.53125 0.991125 2.53125 1.25V2.03125H1.40625C0.630844 2.03125 0 2.66209 0 3.4375V13.8125C0 14.5879 0.630844 15.2188 1.40625 15.2188H14.5938C15.3692 15.2188 16 14.5879 16 13.8125C16 13.5099 16 3.70078 16 3.4375C16 2.66209 15.3692 2.03125 14.5938 2.03125ZM0.9375 3.4375C0.9375 3.17903 1.14778 2.96875 1.40625 2.96875H2.53125V3.75C2.53125 4.00887 2.74113 4.21875 3 4.21875C3.25887 4.21875 3.46875 4.00887 3.46875 3.75V2.96875H7.53125V3.75C7.53125 4.00887 7.74113 4.21875 8 4.21875C8.25887 4.21875 8.46875 4.00887 8.46875 3.75V2.96875H12.5312V3.75C12.5312 4.00887 12.7411 4.21875 13 4.21875C13.2589 4.21875 13.4688 4.00887 13.4688 3.75V2.96875H14.5938C14.8522 2.96875 15.0625 3.17903 15.0625 3.4375V5.28125H0.9375V3.4375ZM14.5938 14.2812H1.40625C1.14778 14.2812 0.9375 14.071 0.9375 13.8125V6.21875H15.0625V13.8125C15.0625 14.071 14.8522 14.2812 14.5938 14.2812Z" fill="url(#paint9_linear)"/>
<defs>
<linearGradient id="paint0_linear" x1="4.80804" y1="7.50647" x2="3.68119" y2="8.02231" gradientUnits="userSpaceOnUse">
<stop stop-color="#EF233C"/>
<stop offset="1" stop-color="#EF233C"/>
</linearGradient>
<linearGradient id="paint1_linear" x1="4.80804" y1="9.50647" x2="3.68119" y2="10.0223" gradientUnits="userSpaceOnUse">
<stop stop-color="#EF233C"/>
<stop offset="1" stop-color="#EF233C"/>
</linearGradient>
<linearGradient id="paint2_linear" x1="4.80804" y1="11.5065" x2="3.68119" y2="12.0223" gradientUnits="userSpaceOnUse">
<stop stop-color="#EF233C"/>
<stop offset="1" stop-color="#EF233C"/>
</linearGradient>
<linearGradient id="paint3_linear" x1="8.80804" y1="7.50647" x2="7.68119" y2="8.02231" gradientUnits="userSpaceOnUse">
<stop stop-color="#EF233C"/>
<stop offset="1" stop-color="#EF233C"/>
</linearGradient>
<linearGradient id="paint4_linear" x1="8.80804" y1="9.50647" x2="7.68119" y2="10.0223" gradientUnits="userSpaceOnUse">
<stop stop-color="#EF233C"/>
<stop offset="1" stop-color="#EF233C"/>
</linearGradient>
<linearGradient id="paint5_linear" x1="8.80804" y1="11.5065" x2="7.68119" y2="12.0223" gradientUnits="userSpaceOnUse">
<stop stop-color="#EF233C"/>
<stop offset="1" stop-color="#EF233C"/>
</linearGradient>
<linearGradient id="paint6_linear" x1="12.808" y1="7.50647" x2="11.6812" y2="8.02231" gradientUnits="userSpaceOnUse">
<stop stop-color="#EF233C"/>
<stop offset="1" stop-color="#EF233C"/>
</linearGradient>
<linearGradient id="paint7_linear" x1="12.808" y1="9.50647" x2="11.6812" y2="10.0223" gradientUnits="userSpaceOnUse">
<stop stop-color="#EF233C"/>
<stop offset="1" stop-color="#EF233C"/>
</linearGradient>
<linearGradient id="paint8_linear" x1="12.808" y1="11.5065" x2="11.6812" y2="12.0223" gradientUnits="userSpaceOnUse">
<stop stop-color="#EF233C"/>
<stop offset="1" stop-color="#EF233C"/>
</linearGradient>
<linearGradient id="paint9_linear" x1="14.6728" y1="-3.45043" x2="4.05687" y2="-0.844471" gradientUnits="userSpaceOnUse">
<stop stop-color="#EF233C"/>
<stop offset="1" stop-color="#EF233C"/>
</linearGradient>
</defs>
</svg>
