<svg width="14" height="15" viewBox="0 0 14 15" fill="none" xmlns="http://www.w3.org/2000/svg">
<path d="M6.99967 14.2673C3.31778 14.2673 0.333008 11.2825 0.333008 7.60063C0.333008 3.91873 3.31778 0.93396 6.99967 0.93396C10.6816 0.93396 13.6663 3.91873 13.6663 7.60063C13.6623 11.2809 10.6799 14.2633 6.99967 14.2673ZM6.99967 2.26729C4.05416 2.26729 1.66634 4.65511 1.66634 7.60063C1.66634 10.5461 4.05416 12.934 6.99967 12.934C9.94519 12.934 12.333 10.5461 12.333 7.60063C12.3297 4.65648 9.94382 2.2706 6.99967 2.26729ZM10.333 8.26729H6.33301V4.26729H7.66634V6.93396H10.333V8.26729Z" fill="#3E404B"/>
</svg>
