<svg width="21" height="25" viewBox="0 0 21 25" fill="none" xmlns="http://www.w3.org/2000/svg">
<path d="M14.4651 0H0.978516V25H20.0215V5.55444C19.759 5.29209 14.6346 0.169385 14.4651 0ZM17.5204 5.12617L14.8945 5.12676V2.49976C15.581 3.18618 16.3286 3.93423 17.5204 5.12617ZM3.48564 23.5352L7.20278 19.8372L9.40137 22.0357L14.8945 16.5426V18.457H16.3594V14.0625H11.9648V15.5273H13.8382L9.40137 19.9642L7.20542 17.7682L2.44336 22.5058V1.46484H13.4297V6.59199L18.5566 6.59082V23.5352H3.48564Z" fill="#D3D3D3"/>
<path d="M4.64062 5.12695H10.4837V6.5918H4.64062V5.12695Z" fill="#D3D3D3"/>
<path d="M4.64062 8.77637H10.4837V10.2412H4.64062V8.77637Z" fill="#D3D3D3"/>
</svg>
