<svg width="23" height="24" viewBox="0 0 23 24" fill="none" xmlns="http://www.w3.org/2000/svg">
<path d="M10.4822 18.3305C10.5908 18.4437 10.7198 18.5335 10.8618 18.5947C11.0037 18.656 11.1558 18.6875 11.3095 18.6875C11.4631 18.6875 11.6153 18.656 11.7572 18.5947C11.8992 18.5335 12.0282 18.4437 12.1368 18.3305L16.5489 13.7343C16.7683 13.5058 16.8916 13.1958 16.8916 12.8726C16.8916 12.5493 16.7683 12.2393 16.5489 12.0108C16.3295 11.7822 16.0319 11.6538 15.7216 11.6538C15.4113 11.6538 15.1138 11.7822 14.8944 12.0108L12.4794 14.5264V1.21875C12.4794 0.895517 12.3562 0.585524 12.1368 0.356964C11.9174 0.128404 11.6198 0 11.3095 0C10.9992 0 10.7016 0.128404 10.4822 0.356964C10.2628 0.585524 10.1395 0.895517 10.1395 1.21875V14.5264L7.72463 12.0108C7.50522 11.7822 7.20764 11.6538 6.89736 11.6538C6.58707 11.6538 6.28949 11.7822 6.07008 12.0108C5.85068 12.2393 5.72742 12.5493 5.72742 12.8726C5.72742 13.1958 5.85068 13.5058 6.07008 13.7343L10.4822 18.3305Z" fill="white"/>
<path d="M21.449 10.5625C21.1387 10.5625 20.8412 10.6909 20.6218 10.9195C20.4024 11.148 20.2791 11.458 20.2791 11.7812V21.125H2.33989V11.7812C2.33989 11.458 2.21663 11.148 1.99723 10.9195C1.77782 10.6909 1.48024 10.5625 1.16995 10.5625C0.859658 10.5625 0.562077 10.6909 0.34267 10.9195C0.123262 11.148 0 11.458 0 11.7812V21.5312C0 22.07 0.205437 22.5866 0.571116 22.9676C0.936796 23.3485 1.43276 23.5625 1.94991 23.5625H20.6691C21.1862 23.5625 21.6822 23.3485 22.0479 22.9676C22.4135 22.5866 22.619 22.07 22.619 21.5312V11.7812C22.619 11.458 22.4957 11.148 22.2763 10.9195C22.0569 10.6909 21.7593 10.5625 21.449 10.5625Z" fill="white"/>
</svg>
