<svg width="15" height="15" viewBox="0 0 15 15" fill="none" xmlns="http://www.w3.org/2000/svg">
<path d="M0.417969 7.55026C0.418793 11.0548 2.95267 14.0388 6.39418 14.5881V9.6091H4.59714V7.55026H6.3963V5.98298C6.31587 5.24034 6.56809 4.50019 7.08455 3.96328C7.60101 3.42638 8.32818 3.14836 9.06884 3.20463C9.60047 3.21326 10.1308 3.26088 10.6555 3.34711V5.0989H9.76018C9.45194 5.05829 9.14205 5.16068 8.91781 5.37721C8.69356 5.59374 8.57923 5.90098 8.60701 6.21238V7.55026H10.5698L10.256 9.60981H8.60701V14.5881C12.3289 13.9965 14.9389 10.5778 14.546 6.80871C14.1532 3.03961 10.8951 0.239568 7.13214 0.437081C3.36914 0.634593 0.418567 3.76052 0.417969 7.55026Z" fill="#4267B2"/>
</svg>
