<svg width="17" height="17" viewBox="0 0 17 17" fill="none" xmlns="http://www.w3.org/2000/svg">
<path d="M16.8741 1.13629C16.7894 0.959167 16.6087 0.846191 16.4102 0.846191H0.512932C0.314405 0.846191 0.133726 0.959167 0.0489948 1.13629C-0.0356683 1.31341 -0.00913418 1.52277 0.117177 1.67385L6.22831 8.98416V15.7249C6.22831 15.9 6.32001 16.0625 6.47074 16.1548C6.55335 16.2053 6.64711 16.2308 6.74121 16.2308C6.81896 16.2308 6.89699 16.2133 6.96894 16.1782L10.4025 14.4997C10.577 14.4145 10.6873 14.2392 10.6876 14.0472L10.6943 8.98437L16.8058 1.67378C16.9322 1.52276 16.9588 1.31334 16.8741 1.13629ZM9.786 8.48066C9.71043 8.57104 9.66899 8.68456 9.66885 8.80178L9.66229 13.7325L7.25418 14.9096V8.80246C7.25418 8.68503 7.21281 8.57124 7.13703 8.48066L1.60056 1.85785H15.3225L9.786 8.48066Z" fill="white"/>
</svg>
