<svg width="22" height="25" viewBox="0 0 22 25" fill="none" xmlns="http://www.w3.org/2000/svg">
<path d="M7.5 17.9583V11.775H5.925V10.3458H8.95833V17.9583H7.5ZM11.7875 17.9583C11.4239 17.9583 11.1191 17.8353 10.8731 17.5893C10.6272 17.3434 10.5042 17.0386 10.5042 16.675V11.6291C10.5042 11.2655 10.6272 10.9607 10.8731 10.7148C11.1191 10.4688 11.4239 10.3458 11.7875 10.3458H14.2083C14.5719 10.3458 14.8767 10.4688 15.1227 10.7148C15.3687 10.9607 15.4917 11.2655 15.4917 11.6291V16.675C15.4917 17.0386 15.3687 17.3434 15.1227 17.5893C14.8767 17.8353 14.5719 17.9583 14.2083 17.9583H11.7875ZM11.9625 16.5H14.0333V11.775H11.9625V16.5ZM11 24.6666C9.54167 24.6666 8.17569 24.3944 6.90208 23.85C5.62847 23.3055 4.51528 22.5569 3.5625 21.6041C2.60972 20.6514 1.86111 19.5382 1.31667 18.2646C0.772222 16.9909 0.5 15.625 0.5 14.1666C0.5 12.7083 0.772222 11.3423 1.31667 10.0687C1.86111 8.79511 2.60972 7.68191 3.5625 6.72913C4.51528 5.77636 5.62847 5.02775 6.90208 4.4833C8.17569 3.93886 9.54167 3.66663 11 3.66663H11.6125L9.3375 1.39163L10.5333 0.195801L14.8208 4.4833L10.5333 8.7708L9.3375 7.57497L11.4958 5.41663H11C8.5625 5.41663 6.49479 6.26559 4.79686 7.9635C3.09895 9.66142 2.25 11.7291 2.25 14.1666C2.25 16.6041 3.09895 18.6718 4.79686 20.3698C6.49479 22.0677 8.5625 22.9166 11 22.9166C13.4375 22.9166 15.5052 22.0677 17.2031 20.3698C18.901 18.6718 19.75 16.6041 19.75 14.1666H21.5C21.5 15.625 21.2278 16.9909 20.6833 18.2646C20.1389 19.5382 19.3903 20.6514 18.4375 21.6041C17.4847 22.5569 16.3715 23.3055 15.0979 23.85C13.8243 24.3944 12.4583 24.6666 11 24.6666Z" fill="white"/>
</svg>
