<svg width="20" height="20" viewBox="0 0 28 28" fill="none" xmlns="http://www.w3.org/2000/svg">
<path d="M14 22.0664C14.7551 22.0664 15.3672 21.4543 15.3672 20.6992C15.3672 19.9441 14.7551 19.332 14 19.332C13.2449 19.332 12.6328 19.9441 12.6328 20.6992C12.6328 21.4543 13.2449 22.0664 14 22.0664Z" fill="white"/>
<path d="M14 0C6.26259 0 0 6.26155 0 14C0 21.7374 6.26155 28 14 28C21.7374 28 28 21.7384 28 14C28 6.26259 21.7384 0 14 0ZM14 25.8125C7.47157 25.8125 2.1875 20.5293 2.1875 14C2.1875 7.47157 7.4707 2.1875 14 2.1875C20.5284 2.1875 25.8125 7.4707 25.8125 14C25.8125 20.5284 20.5293 25.8125 14 25.8125Z" fill="white"/>
<path d="M14 7.02734C11.5876 7.02734 9.625 8.98997 9.625 11.4023C9.625 12.0064 10.1147 12.4961 10.7188 12.4961C11.3228 12.4961 11.8125 12.0064 11.8125 11.4023C11.8125 10.1962 12.7938 9.21484 14 9.21484C15.2062 9.21484 16.1875 10.1962 16.1875 11.4023C16.1875 12.6085 15.2062 13.5898 14 13.5898C13.3959 13.5898 12.9062 14.0795 12.9062 14.6836V17.418C12.9062 18.022 13.3959 18.5117 14 18.5117C14.6041 18.5117 15.0938 18.022 15.0938 17.418V15.6389C16.9786 15.152 18.375 13.4372 18.375 11.4023C18.375 8.98997 16.4124 7.02734 14 7.02734Z" fill="white"/>
</svg>
