<svg width="29" height="29" viewBox="0 0 29 29" fill="none" xmlns="http://www.w3.org/2000/svg">
<path d="M9.45686 4.63973C9.80893 5.30803 10.1437 5.94346 10.5592 6.73228C8.89965 6.25054 7.38989 5.81061 5.81675 5.35819C6.36261 3.9145 6.897 2.52991 7.50036 0.979739C7.78317 1.51657 8.01975 1.91175 8.19297 2.32143C8.37197 2.74208 8.57371 2.85548 9.06318 2.65249C15.1672 0.195833 22.5949 2.32745 26.4541 7.60444C30.5959 13.2832 29.4456 21.0731 23.856 25.234C17.6044 29.8903 8.70297 28.8697 3.57001 22.8999C0.167258 18.9475 -0.495264 13.0536 2.0237 8.72442C2.60581 8.99379 3.2052 9.26902 3.83342 9.57202C2.17759 12.898 2.05992 16.2597 3.79149 19.6544C5.01511 22.031 6.91214 23.7991 9.41349 24.9892C14.6525 27.4675 21.0168 26.125 24.4863 21.8212C27.9098 17.5647 27.6217 11.5999 23.7695 7.52204C19.6462 3.14536 13.4012 2.77358 9.45686 4.63973Z" fill="#D3D3D3"/>
</svg>
