<svg width="20" height="19" viewBox="0 0 20 19" fill="none" xmlns="http://www.w3.org/2000/svg">
<g clip-path="url(#clip0)">
<path d="M11.0087 10.5141C11.0087 12.6725 11.0247 14.8309 10.9927 16.9893C10.9927 17.2451 10.8328 17.5009 10.7369 17.7567C10.4971 17.6448 10.1933 17.5649 10.0174 17.389C8.99422 16.4137 8.03493 15.3745 6.99571 14.4152C6.72392 14.1594 6.27625 13.9835 5.89254 13.9676C4.96524 13.9036 4.02194 13.9196 3.09464 13.9516C2.59901 13.9676 2.35919 13.8077 2.35919 13.2801C2.37518 11.3935 2.37518 9.49091 2.35919 7.60433C2.35919 7.07672 2.59901 6.91684 3.09464 6.91684C3.942 6.93283 4.80536 6.88487 5.65272 6.93283C6.29224 6.96481 6.75589 6.77295 7.18757 6.3093C8.09889 5.35002 9.05817 4.40672 10.0174 3.47942C10.2093 3.30355 10.4971 3.22361 10.7529 3.11169C10.8328 3.3675 10.9927 3.62331 10.9927 3.87912C11.0087 6.08546 10.9927 8.3078 11.0087 10.5141Z" fill="white"/>
<path d="M17.7237 10.3702C17.6757 12.3208 17.0522 14.0315 15.7411 15.4704C15.4214 15.8221 15.0856 16.0779 14.654 15.6782C14.2543 15.2945 14.542 14.9908 14.8138 14.655C17.0202 11.969 17.0362 8.89933 14.8298 6.21334C14.542 5.86161 14.2383 5.50987 14.7019 5.14215C15.1496 4.77442 15.4693 5.09418 15.7891 5.42993C17.0362 6.83687 17.6437 8.51562 17.7237 10.3702Z" fill="white"/>
<path d="M14.8458 10.3223C14.8138 11.6014 14.4301 12.6246 13.6787 13.5039C13.3909 13.8237 13.0072 14.0955 12.6874 13.6798C12.5275 13.4879 12.5755 12.9603 12.7354 12.7365C13.9025 11.0897 13.9345 9.8107 12.7514 8.22788C12.4956 7.87615 12.2717 7.5404 12.6714 7.18866C13.1191 6.80495 13.4389 7.12471 13.7266 7.46046C14.4781 8.29184 14.7978 9.31507 14.8458 10.3223Z" fill="white"/>
</g>
<path d="M18.2287 17.8766L1.85712 1.50493" stroke="white" stroke-width="2"/>
<defs>
<clipPath id="clip0">
<rect width="15.3645" height="14.645" fill="white" transform="translate(2.35919 3.11169)"/>
</clipPath>
</defs>
</svg>
