<svg width="13" height="13" viewBox="0 0 13 13" fill="none" xmlns="http://www.w3.org/2000/svg">
<path d="M9.02151 2.31148C8.87819 2.61206 8.74193 2.89786 8.57277 3.25265C9.27507 3.04904 9.91395 2.86305 10.5797 2.67197C10.3327 2.0105 10.0911 1.37601 9.81848 0.665591C9.70336 0.907041 9.60651 1.08452 9.53681 1.26918C9.46475 1.45877 9.37993 1.50845 9.16934 1.41161C6.5439 0.23792 3.40039 1.13806 1.80893 3.50146C0.101051 6.04493 0.669204 9.5974 3.09255 11.5412C5.80294 13.7163 9.58548 13.335 11.7128 10.6685C13.123 8.90306 13.3463 6.22947 12.2296 4.23774C11.9843 4.3548 11.7316 4.47436 11.467 4.60629C12.2058 6.13391 12.2897 7.66342 11.5859 9.1908C11.0883 10.26 10.2977 11.0463 9.24386 11.5641C7.03643 12.6422 4.31122 11.9727 2.78979 9.98362C1.28845 8.01655 1.35146 5.30719 2.95198 3.48895C4.66499 1.53734 7.3222 1.42635 9.02151 2.31148Z" fill="#D3D3D3"/>
</svg>
