<svg width="30" height="29" viewBox="0 0 30 29" fill="none" xmlns="http://www.w3.org/2000/svg">
<path d="M20.092 4.63973C19.7399 5.30803 19.4052 5.94346 18.9896 6.73228C20.6492 6.25054 22.1589 5.81061 23.7321 5.35819C23.1862 3.9145 22.6518 2.52991 22.0485 0.979739C21.7657 1.51657 21.5291 1.91175 21.3559 2.32143C21.1769 2.74208 20.9751 2.85548 20.4857 2.65249C14.3816 0.195833 6.95389 2.32745 3.09474 7.60444C-1.04708 13.2832 0.10318 21.0731 5.69281 25.234C11.9444 29.8903 20.8459 28.8697 25.9788 22.8999C29.3816 18.9475 30.0441 13.0536 27.5251 8.72442C26.943 8.99379 26.3436 9.26902 25.7154 9.57202C27.3712 12.898 27.4889 16.2597 25.7573 19.6544C24.5337 22.031 22.6367 23.7991 20.1353 24.9892C14.8963 27.4675 8.532 26.125 5.06248 21.8212C1.639 17.5647 1.92714 11.5999 5.77935 7.52204C9.90261 3.14536 16.1477 2.77358 20.092 4.63973Z" fill="#D3D3D3"/>
</svg>
