<svg width="14" height="14" viewBox="0 0 14 14" fill="none" xmlns="http://www.w3.org/2000/svg">
<path fill-rule="evenodd" clip-rule="evenodd" d="M12.4908 12.9518H11.7961C11.7505 12.9518 11.7129 12.9154 11.7129 12.8698V7.91602V7.90462C11.7129 7.80208 11.6935 7.71663 11.657 7.65169C11.6501 7.63916 11.641 7.62663 11.6342 7.61637C11.6273 7.60612 11.6159 7.59587 11.6079 7.58561L11.6056 7.58333C11.5714 7.54915 11.5281 7.52295 11.4779 7.50472L11.4494 7.49675L11.4448 7.49561H11.4437C11.3969 7.48307 11.3433 7.47624 11.2862 7.47624H11.2805H11.2714H4.19213C4.09061 7.47624 4.00733 7.49561 3.94345 7.53206L3.94117 7.5332L3.91037 7.55257L3.90581 7.55713C3.89554 7.5651 3.88528 7.57422 3.87501 7.58333L3.87273 7.58561L3.87159 7.58675C3.80086 7.65853 3.76664 7.76563 3.76664 7.90804V7.9126V12.8732C3.76664 12.9188 3.729 12.9552 3.68337 12.9552H2.55977C2.53809 12.9552 2.51642 12.9461 2.50159 12.9313L1.12589 11.5539C1.10535 11.5379 1.09281 11.5129 1.09281 11.4867V1.47087V1.46175C1.09281 1.36719 1.10992 1.28857 1.143 1.22591C1.1487 1.21338 1.15554 1.20313 1.16239 1.19287L1.16467 1.18945C1.17266 1.17692 1.18634 1.16895 1.19319 1.15641L1.19433 1.15413L1.19661 1.15186C1.22513 1.12337 1.26163 1.10059 1.30156 1.08464L1.30612 1.08236L1.3084 1.08122L1.31068 1.08008L1.33121 1.07324L1.33236 1.0721C1.38027 1.05615 1.43502 1.04932 1.49662 1.04818L1.50688 1.04704H4.4967C4.54233 1.04704 4.57997 1.0835 4.57997 1.12907V4.40462C4.57997 4.46387 4.58568 4.52197 4.5948 4.57552C4.60507 4.62793 4.61191 4.68717 4.63929 4.72819L4.64043 4.73047V4.73161C4.66096 4.78174 4.68834 4.83073 4.71686 4.87402C4.74424 4.91618 4.78074 4.96175 4.81952 5.00277L4.8218 5.00505V5.00619H4.82294C4.8777 5.06315 4.93017 5.13721 5.00774 5.15088H5.00888H5.01002L5.01116 5.15202L5.04767 5.17139L5.09329 5.19189H5.09443C5.13208 5.20785 5.17086 5.22152 5.20851 5.23063H5.20965H5.21307H5.21421H5.21763L5.24729 5.23633C5.29862 5.24658 5.35338 5.25228 5.40927 5.25228H5.41155H10.8642C10.9817 5.25228 11.09 5.23177 11.1893 5.19189L11.1904 5.19076C11.2897 5.14974 11.3809 5.08822 11.463 5.00732L11.4665 5.00391C11.5075 4.96289 11.5452 4.91846 11.576 4.87174C11.6056 4.82845 11.6421 4.78516 11.6513 4.73275V4.73161L11.6524 4.73047L11.6535 4.72819C11.6741 4.6792 11.6923 4.62793 11.7003 4.57552V4.5721C11.7106 4.51856 11.7151 4.46159 11.7151 4.40234V1.13021C11.7151 1.08464 11.7528 1.04704 11.7984 1.04704H12.4828C12.549 1.04704 12.6072 1.05501 12.6585 1.07096C12.7133 1.08805 12.76 1.1154 12.7954 1.15072C12.873 1.22705 12.8958 1.34098 12.8981 1.4458L12.8992 1.45605V1.46175V1.46403V12.5371C12.8992 12.6009 12.8912 12.659 12.8753 12.7091L12.8741 12.7126V12.7148L12.865 12.7399L12.8627 12.7467L12.8524 12.7695L12.8513 12.7741L12.849 12.7786L12.8456 12.7855L12.8285 12.8105L12.8228 12.8197L12.8068 12.839L12.8 12.847C12.7829 12.8652 12.7623 12.8812 12.7395 12.8949C12.7201 12.9063 12.6984 12.9165 12.6768 12.9245L12.6699 12.9268C12.6517 12.9325 12.6311 12.9382 12.6095 12.9427H12.6072H12.606H12.6038L12.5935 12.9438H12.5912H12.5889C12.5638 12.9473 12.533 12.9495 12.5022 12.9507H12.4908V12.9518ZM6.15188 11.898C5.96252 11.898 5.80966 11.7453 5.80966 11.5562C5.80966 11.367 5.96252 11.2144 6.15188 11.2144H9.70178C9.89114 11.2144 10.044 11.367 10.044 11.5562C10.044 11.7453 9.89114 11.898 9.70178 11.898H6.15188ZM6.15188 10.1434C5.96252 10.1434 5.80966 9.99072 5.80966 9.8016C5.80966 9.61247 5.96252 9.4598 6.15188 9.4598H9.70178C9.89114 9.4598 10.044 9.61247 10.044 9.8016C10.044 9.99072 9.89114 10.1434 9.70178 10.1434H6.15188ZM10.7261 1.06982L5.55642 1.04704V3.99333H5.55528C5.55528 4.04574 5.56213 4.09131 5.57468 4.13005C5.5781 4.13688 5.57924 4.14144 5.58266 4.14714C5.59293 4.17334 5.60776 4.19727 5.62829 4.21663L5.63171 4.22005C5.63856 4.22689 5.64426 4.23145 5.6511 4.23714C5.65795 4.24284 5.66593 4.2474 5.67392 4.25309C5.71841 4.2793 5.77886 4.29183 5.85415 4.29183L10.4284 4.32031C10.5322 4.32031 10.6075 4.29639 10.6543 4.24854C10.7022 4.19954 10.7261 4.12321 10.7261 4.01839V1.06982ZM4.78074 8.34326H10.8345C10.8744 8.34326 10.9087 8.3763 10.9087 8.41618V12.8789C10.9087 12.9188 10.8756 12.953 10.8345 12.953H4.78074C4.74081 12.953 4.70659 12.9199 4.70659 12.88V8.41732C4.70659 8.3763 4.74081 8.34326 4.78074 8.34326ZM1.10421 0H12.9973C13.5574 0 14 0.439779 14 1.00146V12.9883C14 13.5522 13.5551 14 12.9973 14H1.97686L1.94948 13.9715L0.119775 12.1452L0 12.0654V0.998047C0 0.373698 0.548684 0 1.10421 0Z" fill="black"/>
</svg>
