<svg width="17" height="19" viewBox="0 0 17 19" fill="none" xmlns="http://www.w3.org/2000/svg">
<path d="M10.0925 18.25H6.90749C6.49634 18.25 6.1406 17.9639 6.05262 17.5623L5.69649 15.9137C5.22141 15.7056 4.77094 15.4453 4.35336 15.1376L2.74599 15.6495C2.35399 15.7745 1.92785 15.6095 1.72224 15.2531L0.12624 12.496C-0.077121 12.1395 -0.00705908 11.6897 0.295115 11.4119L1.54199 10.2744C1.48529 9.7591 1.48529 9.23915 1.54199 8.72388L0.295115 7.589C-0.00750419 7.31107 -0.0775938 6.86076 0.12624 6.504L1.71874 3.74513C1.92435 3.38874 2.35049 3.22374 2.74249 3.34875L4.34986 3.86063C4.56342 3.70239 4.78573 3.55632 5.01574 3.42313C5.23654 3.29861 5.46377 3.18587 5.69649 3.08537L6.05349 1.43862C6.14105 1.03697 6.4964 0.750433 6.90749 0.75H10.0925C10.5036 0.750433 10.8589 1.03697 10.9465 1.43862L11.307 3.08625C11.5527 3.19433 11.792 3.31644 12.0236 3.452C12.24 3.57693 12.4491 3.71394 12.6501 3.86238L14.2584 3.3505C14.6501 3.22596 15.0757 3.39089 15.2812 3.74688L16.8737 6.50575C17.0771 6.8623 17.007 7.31207 16.7049 7.58987L15.458 8.72737C15.5147 9.24265 15.5147 9.7626 15.458 10.2779L16.7049 11.4154C17.007 11.6932 17.0771 12.143 16.8737 12.4995L15.2812 15.2584C15.0757 15.6144 14.6501 15.7793 14.2584 15.6548L12.6501 15.1429C12.4466 15.2928 12.2351 15.4315 12.0166 15.5585C11.7872 15.6914 11.5506 15.8115 11.3079 15.9181L10.9465 17.5623C10.8586 17.9636 10.5033 18.2497 10.0925 18.25ZM8.49649 6C6.56349 6 4.99649 7.567 4.99649 9.5C4.99649 11.433 6.56349 13 8.49649 13C10.4295 13 11.9965 11.433 11.9965 9.5C11.9965 7.567 10.4295 6 8.49649 6Z" fill="white"/>
</svg>
