<svg width="158" height="158" viewBox="0 0 158 158" fill="none" xmlns="http://www.w3.org/2000/svg">
<path d="M134.092 0H39.3951C38.0655 0 36.9879 1.07767 36.9879 2.40848C36.9879 3.73808 38.0655 4.81696 39.3951 4.81696H134.092C138.135 4.81696 141.424 8.10541 141.424 12.1485V127.036C141.424 128.365 142.502 129.444 143.832 129.444C145.162 129.444 146.241 128.365 146.241 127.036V12.1485C146.24 5.44981 140.791 0 134.092 0Z" fill="url(#ss__paint0_linear)"/>
<path d="M143.832 134.742C142.502 134.742 141.424 135.82 141.424 137.151V145.853C141.424 149.895 138.135 153.184 134.092 153.184H24.491C20.4492 153.184 17.1595 149.895 17.1595 145.853V12.1485C17.1595 8.10541 20.4492 4.81696 24.491 4.81696H29.0404C30.37 4.81696 31.4488 3.73808 31.4488 2.40848C31.4488 1.07767 30.37 0 29.0404 0H24.491C17.7936 0 12.3438 5.44981 12.3438 12.1485V145.853C12.3438 152.55 17.7936 158 24.491 158H134.092C140.791 158 146.24 152.55 146.24 145.853V137.151C146.24 135.82 145.162 134.742 143.832 134.742Z" fill="url(#ss__paint1_linear)"/>
<path d="M45.8611 15.542C35.7836 15.542 27.5842 23.7414 27.5842 33.8189C27.5842 43.8977 35.7836 52.0971 45.8611 52.0971C55.9398 52.0971 64.1393 43.8977 64.1393 33.8189C64.1393 23.7414 55.9398 15.542 45.8611 15.542ZM45.8611 47.2801C38.4392 47.2801 32.3999 41.2421 32.3999 33.8201C32.3999 26.397 38.4392 20.3589 45.8611 20.3589C53.283 20.3589 59.3223 26.397 59.3223 33.8201C59.3223 41.2421 53.283 47.2801 45.8611 47.2801Z" fill="url(#ss__paint2_linear)"/>
<path d="M75.3668 24.8502H127.861C129.191 24.8502 130.27 23.7713 130.27 22.4417C130.27 21.1109 129.191 20.0332 127.861 20.0332H75.3668C74.0372 20.0332 72.9595 21.1109 72.9595 22.4417C72.9595 23.7713 74.0372 24.8502 75.3668 24.8502Z" fill="url(#ss__paint3_linear)"/>
<path d="M75.3668 36.2271H113.365C114.696 36.2271 115.773 35.1494 115.773 33.8186C115.773 32.489 114.696 31.4102 113.365 31.4102H75.3668C74.0372 31.4102 72.9595 32.489 72.9595 33.8186C72.9595 35.1494 74.0372 36.2271 75.3668 36.2271Z" fill="url(#ss__paint4_linear)"/>
<path d="M75.3668 47.605H121.189C122.519 47.605 123.597 46.5262 123.597 45.1966C123.597 43.8658 122.519 42.7881 121.189 42.7881H75.3668C74.0372 42.7881 72.9595 43.8658 72.9595 45.1966C72.9595 46.5262 74.0372 47.605 75.3668 47.605Z" fill="url(#ss__paint5_linear)"/>
<path d="M75.3668 70.0679H127.861C129.191 70.0679 130.27 68.9891 130.27 67.6595C130.27 66.3286 129.191 65.251 127.861 65.251H75.3668C74.0372 65.251 72.9595 66.3286 72.9595 67.6595C72.9595 68.9891 74.0372 70.0679 75.3668 70.0679Z" fill="url(#ss__paint6_linear)"/>
<path d="M75.3668 81.4449H113.365C114.696 81.4449 115.773 80.3672 115.773 79.0364C115.773 77.7068 114.696 76.6279 113.365 76.6279H75.3668C74.0372 76.6279 72.9595 77.7068 72.9595 79.0364C72.9595 80.3672 74.0372 81.4449 75.3668 81.4449Z" fill="url(#ss__paint7_linear)"/>
<path d="M75.3668 92.8228H121.189C122.519 92.8228 123.597 91.7439 123.597 90.4143C123.597 89.0847 122.519 88.0059 121.189 88.0059H75.3668C74.0372 88.0059 72.9595 89.0847 72.9595 90.4143C72.9595 91.7439 74.0372 92.8228 75.3668 92.8228Z" fill="url(#ss__paint8_linear)"/>
<path d="M45.8611 105.977C35.7836 105.977 27.5842 114.176 27.5842 124.254C27.5842 134.332 35.7836 142.532 45.8611 142.532C55.9398 142.532 64.1393 134.332 64.1393 124.254C64.1393 114.176 55.9398 105.977 45.8611 105.977ZM45.8611 137.715C38.4392 137.715 32.3999 131.677 32.3999 124.254C32.3999 116.832 38.4392 110.794 45.8611 110.794C53.283 110.794 59.3223 116.832 59.3223 124.254C59.3223 131.677 53.283 137.715 45.8611 137.715Z" fill="url(#ss__paint9_linear)"/>
<path d="M75.3668 115.285H127.861C129.191 115.285 130.27 114.206 130.27 112.876C130.27 111.547 129.191 110.468 127.861 110.468H75.3668C74.0372 110.468 72.9595 111.547 72.9595 112.876C72.9595 114.206 74.0372 115.285 75.3668 115.285Z" fill="url(#ss__paint10_linear)"/>
<path d="M75.3668 126.662H113.365C114.696 126.662 115.773 125.585 115.773 124.254C115.773 122.924 114.696 121.847 113.365 121.847H75.3668C74.0372 121.847 72.9595 122.924 72.9595 124.254C72.9595 125.585 74.0372 126.662 75.3668 126.662Z" fill="url(#ss__paint11_linear)"/>
<path d="M75.3668 138.041H121.189C122.519 138.041 123.597 136.962 123.597 135.632C123.597 134.301 122.519 133.224 121.189 133.224H75.3668C74.0372 133.224 72.9595 134.301 72.9595 135.632C72.9595 136.962 74.0372 138.041 75.3668 138.041Z" fill="url(#ss__paint12_linear)"/>
<path d="M42.5437 75.3222C41.6035 74.3819 40.0774 74.3819 39.1371 75.3222C38.1969 76.2624 38.1969 77.7873 39.1371 78.7276L45.0776 84.668C45.5489 85.1381 46.1649 85.3732 46.7809 85.3732C47.3969 85.3732 48.014 85.1381 48.4842 84.668L60.9099 72.2423C60.9219 72.2302 60.9328 72.2182 60.9448 72.2073L69.1949 63.9572C70.1351 63.017 70.1351 61.4921 69.1949 60.5519C68.2547 59.6116 66.7286 59.6116 65.7883 60.5519L59.4887 66.8527C56.0495 62.9941 51.1349 60.7592 45.8611 60.7592C35.7836 60.7592 27.5842 68.9586 27.5842 79.0374C27.5842 89.1149 35.7836 97.3143 45.8611 97.3143C55.9398 97.3143 64.1393 89.1149 64.1393 79.0374C64.1393 77.7065 63.0604 76.6289 61.7308 76.6289C60.4 76.6289 59.3223 77.7065 59.3223 79.0374C59.3223 86.4593 53.283 92.4973 45.8611 92.4973C38.4392 92.4973 32.3999 86.4593 32.3999 79.0374C32.3999 71.6142 38.4392 65.5762 45.8611 65.5762C49.8367 65.5762 53.5314 67.3036 56.0712 70.269L46.7809 79.5605L42.5437 75.3222Z" fill="url(#ss__paint13_linear)"/>
<defs>
<linearGradient id="ss__paint0_linear" x1="137.178" y1="-37.9405" x2="62.9169" y2="-24.0571" gradientUnits="userSpaceOnUse">
<stop stop-color="#5A98EE"/>
<stop offset="1" stop-color="#B288E3"/>
</linearGradient>
<linearGradient id="ss__paint1_linear" x1="135.133" y1="-46.3103" x2="44.1463" y2="-29.231" gradientUnits="userSpaceOnUse">
<stop stop-color="#5A98EE"/>
<stop offset="1" stop-color="#B288E3"/>
</linearGradient>
<linearGradient id="ss__paint2_linear" x1="61.107" y1="4.82757" x2="36.594" y2="10.2573" gradientUnits="userSpaceOnUse">
<stop stop-color="#5A98EE"/>
<stop offset="1" stop-color="#B288E3"/>
</linearGradient>
<linearGradient id="ss__paint3_linear" x1="125.516" y1="18.6213" x2="120.442" y2="31.9941" gradientUnits="userSpaceOnUse">
<stop stop-color="#5A98EE"/>
<stop offset="1" stop-color="#B288E3"/>
</linearGradient>
<linearGradient id="ss__paint4_linear" x1="112.222" y1="29.9983" x2="106.045" y2="42.1591" gradientUnits="userSpaceOnUse">
<stop stop-color="#5A98EE"/>
<stop offset="1" stop-color="#B288E3"/>
</linearGradient>
<linearGradient id="ss__paint5_linear" x1="119.396" y1="41.3762" x2="113.849" y2="54.2923" gradientUnits="userSpaceOnUse">
<stop stop-color="#5A98EE"/>
<stop offset="1" stop-color="#B288E3"/>
</linearGradient>
<linearGradient id="ss__paint6_linear" x1="125.516" y1="63.8391" x2="120.442" y2="77.2119" gradientUnits="userSpaceOnUse">
<stop stop-color="#5A98EE"/>
<stop offset="1" stop-color="#B288E3"/>
</linearGradient>
<linearGradient id="ss__paint7_linear" x1="112.222" y1="75.2161" x2="106.045" y2="87.3769" gradientUnits="userSpaceOnUse">
<stop stop-color="#5A98EE"/>
<stop offset="1" stop-color="#B288E3"/>
</linearGradient>
<linearGradient id="ss__paint8_linear" x1="119.396" y1="86.594" x2="113.849" y2="99.5101" gradientUnits="userSpaceOnUse">
<stop stop-color="#5A98EE"/>
<stop offset="1" stop-color="#B288E3"/>
</linearGradient>
<linearGradient id="ss__paint9_linear" x1="61.107" y1="95.2621" x2="36.594" y2="100.692" gradientUnits="userSpaceOnUse">
<stop stop-color="#5A98EE"/>
<stop offset="1" stop-color="#B288E3"/>
</linearGradient>
<linearGradient id="ss__paint10_linear" x1="125.516" y1="109.056" x2="120.442" y2="122.429" gradientUnits="userSpaceOnUse">
<stop stop-color="#5A98EE"/>
<stop offset="1" stop-color="#B288E3"/>
</linearGradient>
<linearGradient id="ss__paint11_linear" x1="112.222" y1="120.435" x2="106.047" y2="132.594" gradientUnits="userSpaceOnUse">
<stop stop-color="#5A98EE"/>
<stop offset="1" stop-color="#B288E3"/>
</linearGradient>
<linearGradient id="ss__paint12_linear" x1="119.396" y1="131.812" x2="113.849" y2="144.728" gradientUnits="userSpaceOnUse">
<stop stop-color="#5A98EE"/>
<stop offset="1" stop-color="#B288E3"/>
</linearGradient>
<linearGradient id="ss__paint13_linear" x1="66.39" y1="48.8648" x2="38.375" y2="55.8732" gradientUnits="userSpaceOnUse">
<stop stop-color="#5A98EE"/>
<stop offset="1" stop-color="#B288E3"/>
</linearGradient>
</defs>
</svg>
