<svg width="170" height="170" class="softwareIcon" viewBox="0 0 170 170" fill="none" xmlns="http://www.w3.org/2000/svg">
<path d="M161.324 5.64062H8.66635C3.88775 5.64062 0 9.52838 0 14.307V122.121C0 126.905 3.88775 130.797 8.66635 130.797H53.4965V143.781H36.8263C31.1552 143.781 26.5412 148.394 26.5412 154.066V161.04C26.5412 162.874 28.0281 164.361 29.8616 164.361H140.139C141.972 164.361 143.459 162.874 143.459 161.04V154.066C143.459 148.395 138.841 143.781 133.165 143.781H116.504V130.797H161.324C166.108 130.797 170 126.905 170 122.121V14.307C170 9.52838 166.108 5.64062 161.324 5.64062ZM136.818 154.066V157.72H33.1819V154.066C33.1819 152.056 34.8168 150.421 36.8263 150.421H133.165C135.179 150.421 136.818 152.056 136.818 154.066ZM109.863 143.78H60.1368V130.797H109.863V143.78ZM161.324 124.157H8.66635C7.56832 124.157 6.64062 123.224 6.64062 122.121V115.446H70.0872C71.9206 115.446 73.4075 113.959 73.4075 112.126C73.4075 110.292 71.9206 108.805 70.0872 108.805H6.64062V14.307C6.64062 13.2089 7.56832 12.2812 8.66635 12.2812H161.325C162.428 12.2812 163.36 13.2089 163.36 14.307V108.805H99.9035C98.0701 108.805 96.5832 110.292 96.5832 112.126C96.5832 113.959 98.0701 115.446 99.9035 115.446H163.359V122.121C163.359 123.224 162.427 124.157 161.324 124.157Z" fill="url(#si_paint0_linear)"/>
<path d="M148.769 73.2002H103.772C101.938 73.2002 100.451 74.687 100.451 76.5205V97.1891C100.451 99.0226 101.938 100.509 103.772 100.509H148.769C150.602 100.509 152.089 99.0226 152.089 97.1891V76.5205C152.09 74.687 150.603 73.2002 148.769 73.2002ZM145.449 93.8688H107.092V79.8408H145.449V93.8688H145.449Z" fill="url(#si_paint1_linear)"/>
<path d="M87.207 50.2818H86.7352C86.0943 48.2047 85.2576 46.1909 84.2313 44.2578L84.5564 43.9311C85.7364 42.7613 86.3859 41.1988 86.3859 39.5313C86.3859 37.8639 85.7364 36.301 84.5667 35.1409L78.8541 29.4283C77.6843 28.2486 76.1218 27.5988 74.4547 27.5988C74.4543 27.5988 74.4543 27.5988 74.454 27.5988C72.7869 27.5988 71.224 28.2482 70.0635 29.418L69.7302 29.7513C67.8034 28.731 65.789 27.8953 63.7038 27.2521V26.7873C63.7038 23.3581 60.9181 20.5684 57.4942 20.5684H49.3999C45.976 20.5684 43.1903 23.3581 43.1903 26.7873V27.2521C41.1051 27.8956 39.0903 28.731 37.1639 29.7513L36.8305 29.418C35.6568 28.2446 34.0973 27.5988 32.4371 27.5988C32.4328 27.5988 32.4288 27.5988 32.4245 27.5988C30.764 27.6021 29.2074 28.2516 28.052 29.4167L22.3181 35.1409C21.1494 36.31 20.5056 37.8688 20.5056 39.5313C20.5056 41.1935 21.1494 42.7524 22.3181 43.9211L22.6574 44.2608C21.6345 46.1859 20.7987 48.1983 20.1579 50.2818H19.6874C16.2635 50.2818 13.4778 53.0676 13.4778 56.4915V64.5857C13.4778 68.015 16.2635 70.805 19.6874 70.805H20.1579C20.7987 72.8865 21.6328 74.8973 22.6548 76.8208L22.3085 77.1657C19.9106 79.5836 19.9106 83.5178 22.3201 85.9476L28.05 91.6682C30.4612 94.0788 34.3954 94.0831 36.8305 91.6682L37.1636 91.3349C39.0927 92.3562 41.1071 93.1906 43.1903 93.8304V94.2996C43.1903 97.7235 45.976 100.509 49.3999 100.509H57.4942C60.9181 100.509 63.7038 97.7235 63.7038 94.2996V93.8304C65.787 93.1906 67.8017 92.3565 69.7305 91.3349L70.0635 91.6682C71.2326 92.8373 72.7918 93.4808 74.454 93.4808C76.1165 93.4808 77.6757 92.837 78.8444 91.6682L84.5667 85.946C85.7397 84.7726 86.3859 83.2117 86.3859 81.5509C86.3859 79.8901 85.7397 78.3295 84.5667 77.1561L84.2343 76.8238C85.2593 74.8927 86.095 72.8809 86.7352 70.8054H87.207C90.6309 70.8054 93.4166 68.0153 93.4166 64.5861V56.4918C93.417 53.0673 90.6312 50.2818 87.207 50.2818ZM86.7763 64.1644H84.1858C82.6326 64.1644 81.2872 65.2408 80.9462 66.7566C80.2449 69.8767 79.0098 72.85 77.2756 75.5932C76.4462 76.9054 76.6368 78.6171 77.7345 79.7151L79.5703 81.5506L74.454 86.6668L72.6228 84.8357C71.5248 83.7383 69.8135 83.5477 68.5007 84.3771C65.7717 86.102 62.796 87.3339 59.6567 88.0378C58.1406 88.3778 57.0629 89.7238 57.0629 91.2777V93.8682H49.8306V91.2777C49.8306 89.7238 48.7531 88.3781 47.2367 88.0378C44.0974 87.3339 41.1217 86.102 38.3927 84.3771C37.0809 83.5481 35.3693 83.738 34.2706 84.8357L32.4391 86.6672L27.3145 81.5512L29.1536 79.7201C30.2576 78.6207 30.4489 76.9018 29.6138 75.5869C27.8869 72.8683 26.6534 69.8972 25.9472 66.7562C25.6066 65.2408 24.2608 64.1641 22.7076 64.1641H20.1174V56.9218H22.7076C24.2608 56.9218 25.6062 55.8454 25.9472 54.3296C26.6534 51.1886 27.8869 48.2176 29.6138 45.4993C30.4476 44.1864 30.2583 42.4708 29.159 41.3711L27.3188 39.5303L32.4391 34.4184L34.2706 36.2499C35.3689 37.3479 37.0809 37.5378 38.3924 36.7087C41.1167 34.9865 44.095 33.7513 47.2447 33.0365C48.7571 32.6935 49.8302 31.3491 49.8302 29.7985V27.208H57.0625V29.7985C57.0625 31.3491 58.1357 32.6935 59.6481 33.0365C62.7977 33.751 65.776 34.9865 68.5003 36.7087C69.8115 37.5378 71.5238 37.3472 72.6222 36.2499L74.4533 34.4187L79.5653 39.531L77.7285 41.3764C76.6351 42.4748 76.4472 44.1828 77.2749 45.4926C79.0091 48.2362 80.2439 51.2092 80.9455 54.3293C81.2862 55.8447 82.6319 56.9215 84.1852 56.9215H86.7757V64.1644H86.7763Z" fill="url(#si_paint2_linear)"/>
<path d="M72.7785 50.7047C72.658 49.6997 72.067 48.7779 71.1987 48.255L55.1613 38.5889C54.1067 37.9534 52.7879 37.9537 51.7341 38.5882L35.687 48.2543C34.7042 48.8463 34.08 49.951 34.08 51.0985V69.9884C34.08 71.1529 34.6899 72.232 35.687 72.8326L51.7341 82.4987C52.774 83.1252 54.1207 83.1249 55.1613 82.498L71.1987 72.8319C72.1955 72.231 72.8051 71.1522 72.8051 69.9884V51.0985C72.8048 50.968 72.7941 50.8345 72.7785 50.7047ZM53.4467 45.3089L63.0527 51.0985L53.4467 56.8881L43.8354 51.0985L53.4467 45.3089ZM40.7206 56.9748L50.127 62.6409V73.7786L40.7206 68.1124V56.9748ZM66.1641 68.1131L56.7673 73.7769V62.6402L66.1641 56.9768V68.1131Z" fill="url(#si_paint3_linear)"/>
<path d="M118.68 34.1172H148.769C150.603 34.1172 152.09 32.6304 152.09 30.7969C152.09 28.9634 150.603 27.4766 148.769 27.4766H118.68C116.846 27.4766 115.36 28.9634 115.36 30.7969C115.36 32.6304 116.846 34.1172 118.68 34.1172Z" fill="url(#si_paint4_linear)"/>
<path d="M103.772 34.1172H103.791C105.624 34.1172 107.102 32.6304 107.102 30.7969C107.102 28.9634 105.605 27.4766 103.772 27.4766C101.938 27.4766 100.452 28.9634 100.452 30.7969C100.452 32.6304 101.938 34.1172 103.772 34.1172Z" fill="url(#si_paint5_linear)"/>
<path d="M118.67 48.498H148.75C150.584 48.498 152.071 47.0112 152.071 45.1777C152.071 43.3443 150.584 41.8574 148.75 41.8574H118.67C116.837 41.8574 115.35 43.3443 115.35 45.1777C115.35 47.0112 116.837 48.498 118.67 48.498Z" fill="url(#si_paint6_linear)"/>
<path d="M103.762 48.498H103.772C105.605 48.498 107.087 47.0112 107.087 45.1777C107.087 43.3443 105.596 41.8574 103.762 41.8574C101.928 41.8574 100.442 43.3443 100.442 45.1777C100.442 47.0112 101.929 48.498 103.762 48.498Z" fill="url(#si_paint7_linear)"/>
<path d="M118.652 62.8799H148.741C150.574 62.8799 152.061 61.393 152.061 59.5596C152.061 57.7261 150.574 56.2393 148.741 56.2393H118.652C116.818 56.2393 115.331 57.7261 115.331 59.5596C115.331 61.393 116.818 62.8799 118.652 62.8799Z" fill="url(#si_paint8_linear)"/>
<path d="M103.744 62.8799H103.762C105.596 62.8799 107.073 61.393 107.073 59.5596C107.073 57.7261 105.577 56.2393 103.744 56.2393C101.91 56.2393 100.424 57.7261 100.424 59.5596C100.424 61.393 101.91 62.8799 103.744 62.8799Z" fill="url(#si_paint9_linear)"/>
<path d="M84.9951 108.806C83.1616 108.806 81.6748 110.293 81.6748 112.126C81.6748 113.959 83.1616 115.446 84.9951 115.446H85.0144C86.8478 115.446 88.3254 113.959 88.3254 112.126C88.3254 110.293 86.8289 108.806 84.9951 108.806Z" fill="url(#si_paint10_linear)"/>
<defs>
<linearGradient id="si_paint0_linear" x1="155.899" y1="-40.8807" x2="42.68" y2="-14.0201" gradientUnits="userSpaceOnUse">
<stop stop-color="#F26A32"/>
<stop offset="1" stop-color="#FE9960"/>
</linearGradient>
<linearGradient id="si_paint1_linear" x1="147.806" y1="65.1958" x2="116.901" y2="78.1397" gradientUnits="userSpaceOnUse">
<stop stop-color="#F26A32"/>
<stop offset="1" stop-color="#FE9960"/>
</linearGradient>
<linearGradient id="si_paint2_linear" x1="86.7858" y1="-2.86258" x2="33.1805" y2="9.01089" gradientUnits="userSpaceOnUse">
<stop stop-color="#F26A32"/>
<stop offset="1" stop-color="#FE9960"/>
</linearGradient>
<linearGradient id="si_paint3_linear" x1="69.5929" y1="24.9648" x2="43.3117" y2="29.9905" gradientUnits="userSpaceOnUse">
<stop stop-color="#F26A32"/>
<stop offset="1" stop-color="#FE9960"/>
</linearGradient>
<linearGradient id="si_paint4_linear" x1="149.043" y1="25.5302" x2="138.712" y2="38.1877" gradientUnits="userSpaceOnUse">
<stop stop-color="#F26A32"/>
<stop offset="1" stop-color="#FE9960"/>
</linearGradient>
<linearGradient id="si_paint5_linear" x1="106.55" y1="25.5302" x2="102.091" y2="26.5192" gradientUnits="userSpaceOnUse">
<stop stop-color="#F26A32"/>
<stop offset="1" stop-color="#FE9960"/>
</linearGradient>
<linearGradient id="si_paint6_linear" x1="149.025" y1="39.911" x2="138.693" y2="52.5659" gradientUnits="userSpaceOnUse">
<stop stop-color="#F26A32"/>
<stop offset="1" stop-color="#FE9960"/>
</linearGradient>
<linearGradient id="si_paint7_linear" x1="106.536" y1="39.911" x2="102.08" y2="40.8988" gradientUnits="userSpaceOnUse">
<stop stop-color="#F26A32"/>
<stop offset="1" stop-color="#FE9960"/>
</linearGradient>
<linearGradient id="si_paint8_linear" x1="149.015" y1="54.2929" x2="138.683" y2="66.9503" gradientUnits="userSpaceOnUse">
<stop stop-color="#F26A32"/>
<stop offset="1" stop-color="#FE9960"/>
</linearGradient>
<linearGradient id="si_paint9_linear" x1="106.522" y1="54.2929" x2="102.063" y2="55.2819" gradientUnits="userSpaceOnUse">
<stop stop-color="#F26A32"/>
<stop offset="1" stop-color="#FE9960"/>
</linearGradient>
<linearGradient id="si_paint10_linear" x1="87.7737" y1="106.859" x2="83.3146" y2="107.848" gradientUnits="userSpaceOnUse">
<stop stop-color="#F26A32"/>
<stop offset="1" stop-color="#FE9960"/>
</linearGradient>
</defs>
</svg>