<svg width="16" height="15" viewBox="0 0 16 15" fill="none" xmlns="http://www.w3.org/2000/svg">
<g clip-path="url(#clip0)">
<path d="M8.63293 7.30699C8.63293 9.38258 8.6483 11.4582 8.61755 13.5338C8.61755 13.7798 8.46381 14.0258 8.37156 14.2718C8.14094 14.1641 7.84882 14.0873 7.67969 13.9181C6.69571 12.9803 5.77322 11.9809 4.77387 11.0584C4.51249 10.8124 4.082 10.6433 3.71301 10.6279C2.82127 10.5664 1.91416 10.5818 1.02242 10.6126C0.545807 10.6279 0.315186 10.4742 0.315186 9.96682C0.33056 8.1526 0.33056 6.32301 0.315186 4.50878C0.315186 4.00142 0.545807 3.84767 1.02242 3.84767C1.83729 3.86304 2.66752 3.81692 3.48239 3.86304C4.09738 3.89379 4.54324 3.7093 4.95836 3.26343C5.83472 2.34094 6.75721 1.43383 7.67969 0.542096C7.86419 0.372974 8.14094 0.2961 8.38693 0.188477C8.46381 0.434473 8.61755 0.680469 8.61755 0.926465C8.63293 3.04818 8.61755 5.18527 8.63293 7.30699Z" fill="white"/>
<path d="M15.0904 7.1685C15.0442 9.04422 14.4446 10.6893 13.1839 12.0731C12.8764 12.4113 12.5535 12.6573 12.1384 12.2729C11.754 11.9039 12.0308 11.6118 12.2921 11.2889C14.4139 8.70598 14.4292 5.75403 12.3075 3.17107C12.0308 2.83282 11.7387 2.49458 12.1845 2.14096C12.615 1.78734 12.9225 2.09483 13.23 2.4177C14.4292 3.77068 15.0135 5.38503 15.0904 7.1685Z" fill="white"/>
<path d="M12.3229 7.12247C12.2922 8.35245 11.9232 9.33644 11.2006 10.1821C10.9238 10.4895 10.5548 10.7509 10.2473 10.3512C10.0936 10.1667 10.1397 9.65931 10.2935 9.44406C11.4158 7.86046 11.4466 6.63048 10.3088 5.10838C10.0628 4.77014 9.8476 4.44727 10.232 4.10902C10.6625 3.74003 10.97 4.04752 11.2467 4.37039C11.9693 5.16988 12.2768 6.15386 12.3229 7.12247Z" fill="white"/>
</g>
<defs>
<clipPath id="clip0">
<rect width="14.7751" height="14.0833" fill="white" transform="translate(0.315186 0.188477)"/>
</clipPath>
</defs>
</svg>
