<svg width="173" height="173" viewBox="0 0 173 173" class="support-document-icon" xmlns="http://www.w3.org/2000/svg">
<path d="M165.763 77.85H155.7V59.7773C155.7 55.435 152.165 51.9 147.823 51.9H144.167V0H28.8333V5.76667H20.1833V11.5333H11.5333V31.7167H7.87727C3.53497 31.7167 0 35.2516 0 39.5939V165.558H0.0173C0.00288333 167.181 0.507467 168.77 1.5224 170.099C2.93523 171.945 5.07467 173 7.39575 173H136.451C139.787 173 142.722 170.751 143.512 167.773L173 86.9296V86.4193C173 81.4542 169.955 77.85 165.763 77.85ZM147.823 57.6667C148.988 57.6667 149.933 58.6124 149.933 59.7773V77.85H144.167V57.6667H147.823ZM138.4 5.76667V51.9V77.85H36.7077C36.0359 77.85 35.39 77.9624 34.7644 78.1326C34.7125 78.147 34.6519 78.1412 34.6 78.1556V5.76667H138.4ZM28.8333 11.5333V85.3034L28.6517 85.8022L25.95 93.2066V11.5333H28.8333ZM17.3 17.3H20.1833V109.019L17.3 116.922V31.7167V17.3ZM5.76667 39.5939C5.76667 38.4291 6.71528 37.4833 7.87727 37.4833H11.5333V132.469L5.76667 148.198V39.5939ZM138.019 166.034C137.832 166.74 137.186 167.233 136.451 167.233H7.39575C6.6951 167.233 6.28567 166.833 6.10402 166.593C5.92237 166.357 5.64268 165.855 5.74937 165.417L11.5333 149.559V149.561L20.1833 125.846L28.8333 102.131V102.139L34.4039 86.8547L34.6 86.3212L35.0613 85.0555L35.1363 84.819C35.3266 84.1126 35.9753 83.6167 36.7077 83.6167H138.4H144.167H155.7H165.763C166.856 83.6167 167.138 85.191 167.207 85.9781L138.019 166.034Z" fill="url(#sd__paint0_linear)"/>
<path d="M51.9 49.0167H121.1C122.692 49.0167 123.983 47.7278 123.983 46.1333C123.983 44.5389 122.692 43.25 121.1 43.25H51.9C50.3084 43.25 49.0167 44.5389 49.0167 46.1333C49.0167 47.7278 50.3084 49.0167 51.9 49.0167Z" fill="url(#sd__paint1_linear)"/>
<path d="M51.9 28.8331H80.7333C82.3249 28.8331 83.6167 27.5442 83.6167 25.9497C83.6167 24.3553 82.3249 23.0664 80.7333 23.0664H51.9C50.3084 23.0664 49.0167 24.3553 49.0167 25.9497C49.0167 27.5442 50.3084 28.8331 51.9 28.8331Z" fill="url(#sd__paint2_linear)"/>
<path d="M51.9 69.2003H121.1C122.692 69.2003 123.983 67.9114 123.983 66.3169C123.983 64.7224 122.692 63.4336 121.1 63.4336H51.9C50.3084 63.4336 49.0167 64.7224 49.0167 66.3169C49.0167 67.9114 50.3084 69.2003 51.9 69.2003Z" fill="url(#sd__paint3_linear)"/>
<defs>
<linearGradient id="sd__paint0_linear" x1="158.65" y1="-50.7069" x2="42.64" y2="-25.0103" gradientUnits="userSpaceOnUse">
<stop offset="0.0833333" stop-color="#6897E9"/>
<stop offset="0.567708" stop-color="#9985B0"/>
<stop offset="0.786458" stop-color="#B87A8C"/>
<stop offset="1" stop-color="#DD6D61"/>
</linearGradient>
<linearGradient id="sd__paint1_linear" x1="117.765" y1="41.5598" x2="112.089" y2="57.9032" gradientUnits="userSpaceOnUse">
<stop offset="0.0833333" stop-color="#6897E9"/>
<stop offset="0.567708" stop-color="#9985B0"/>
<stop offset="0.786458" stop-color="#B87A8C"/>
<stop offset="1" stop-color="#DD6D61"/>
</linearGradient>
<linearGradient id="sd__paint2_linear" x1="80.7466" y1="21.3762" x2="71.9477" y2="33.0701" gradientUnits="userSpaceOnUse">
<stop offset="0.0833333" stop-color="#6897E9"/>
<stop offset="0.567708" stop-color="#9985B0"/>
<stop offset="0.786458" stop-color="#B87A8C"/>
<stop offset="1" stop-color="#DD6D61"/>
</linearGradient>
<linearGradient id="sd__paint3_linear" x1="117.765" y1="61.7434" x2="112.089" y2="78.0868" gradientUnits="userSpaceOnUse">
<stop offset="0.0833333" stop-color="#6897E9"/>
<stop offset="0.567708" stop-color="#9985B0"/>
<stop offset="0.786458" stop-color="#B87A8C"/>
<stop offset="1" stop-color="#DD6D61"/>
</linearGradient>
</defs>
</svg>