<svg width="12" height="11" viewBox="0 0 12 11" fill="none" xmlns="http://www.w3.org/2000/svg">
<path d="M7.2483 0.126838C7.41742 -0.0422795 7.76299 -0.0422795 7.93211 0.126838C8.10122 0.295956 8.10122 0.573142 7.93211 0.74226L6.76964 1.90472H10.1203C10.8378 1.90472 11.4879 2.55477 11.4879 3.27233V8.74275C11.4879 9.4603 10.8378 10.1104 10.1203 10.1104H1.3676C0.65005 10.1104 0 9.4603 0 8.74275V3.27233C0 2.55477 0.65005 1.90472 1.3676 1.90472H3.89767L2.73521 0.74226C2.56609 0.573142 2.56609 0.295956 2.73521 0.126838C2.90433 -0.0422795 3.24989 -0.0422795 3.41901 0.126838L5.1969 1.90472H5.5388L7.2483 0.126838ZM1.3676 3.27233V8.74275H3.13272H3.44636C3.44636 8.74275 3.70164 8.74272 4.62554 8.74275H5.65439H7.3813C8.3052 8.74272 7.96613 8.74275 7.96613 8.74275H8.20563V3.27233H1.3676ZM9.84673 3.18116C9.36836 3.18116 8.98059 3.56896 8.98059 4.04732C8.98059 4.52568 9.36836 4.91348 9.84673 4.91348C10.3251 4.91348 10.7129 4.52568 10.7129 4.04732C10.7129 3.56896 10.3251 3.18116 9.84673 3.18116ZM9.84673 5.77961C9.36836 5.77961 8.98059 6.16741 8.98059 6.64577C8.98059 7.12413 9.36836 7.5119 9.84673 7.5119C10.3251 7.5119 10.7129 7.12413 10.7129 6.64577C10.7129 6.16741 10.3251 5.77961 9.84673 5.77961ZM4.27654 8.74274C4.12255 8.81971 4.02076 8.74273 4.02076 8.74273C4.02076 8.74273 3.44636 8.99622 3.82697 8.74275H4.35049L4.27654 8.74274Z" fill="#FF1717"/>
</svg>
