<svg width="197" height="197" viewBox="0 0 197 197" fill="none" xmlns="http://www.w3.org/2000/svg">
<path d="M170.597 89.7031H111.367C109.772 89.7031 108.481 90.9957 108.481 92.5889C108.481 94.1835 109.772 95.4746 111.367 95.4746H170.597C172.191 95.4746 173.482 94.1835 173.482 92.5889C173.482 90.9957 172.19 89.7031 170.597 89.7031Z" fill="url(#paint0_linear)"/>
<path d="M170.597 105.167H111.367C109.772 105.167 108.481 106.458 108.481 108.053C108.481 109.646 109.772 110.938 111.367 110.938H170.597C172.191 110.938 173.482 109.646 173.482 108.053C173.482 106.458 172.19 105.167 170.597 105.167Z" fill="url(#paint1_linear)"/>
<path d="M170.597 120.63H111.367C109.772 120.63 108.481 121.922 108.481 123.516C108.481 125.11 109.772 126.401 111.367 126.401H170.597C172.191 126.401 173.482 125.11 173.482 123.516C173.482 121.922 172.19 120.63 170.597 120.63Z" fill="url(#paint2_linear)"/>
<path d="M170.597 136.094H111.367C109.772 136.094 108.481 137.386 108.481 138.979C108.481 140.573 109.772 141.865 111.367 141.865H170.597C172.191 141.865 173.482 140.573 173.482 138.979C173.482 137.386 172.19 136.094 170.597 136.094Z" fill="url(#paint3_linear)"/>
<path d="M36.5707 55.3782C40.2846 54.9108 43.979 54.6748 47.5531 54.6748C67.3144 54.6748 80.3964 61.5615 86.4354 65.6647C86.9314 66.0028 87.4966 66.1652 88.0542 66.1652C88.9785 66.1652 89.8863 65.7218 90.4439 64.9012C91.3397 63.583 90.997 61.7885 89.6789 60.8912C83.0928 56.4153 68.8595 48.9033 47.5531 48.9033C43.74 48.9033 39.8037 49.1558 35.8523 49.6518C34.2711 49.8502 33.1499 51.2931 33.3483 52.8742C33.5467 54.4554 34.9851 55.5766 36.5707 55.3782Z" fill="url(#paint4_linear)"/>
<path d="M36.5707 74.303C40.2846 73.8356 43.979 73.5996 47.5531 73.5996C67.3144 73.5996 80.3964 80.4848 86.4354 84.5895C86.9314 84.9277 87.4966 85.0885 88.0542 85.0885C88.9785 85.0885 89.8863 84.6466 90.4439 83.826C91.3397 82.5063 90.997 80.7118 89.6789 79.816C83.0928 75.3386 68.8595 67.8281 47.5531 67.8281C43.74 67.8281 39.8037 68.0791 35.8523 68.5751C34.2711 68.775 33.1499 70.2179 33.3483 71.799C33.5467 73.3802 34.9851 74.5014 36.5707 74.303Z" fill="url(#paint5_linear)"/>
<path d="M88.0542 104.014C88.9785 104.014 89.8848 103.572 90.4439 102.75C91.3397 101.432 90.997 99.6375 89.6789 98.7418C83.0913 94.2643 68.8595 86.7539 47.5531 86.7539C43.74 86.7539 39.8022 87.0049 35.8523 87.5009C34.2697 87.6993 33.1499 89.1422 33.3483 90.7248C33.5467 92.306 34.9851 93.4257 36.5707 93.2273C40.2846 92.7614 43.979 92.5254 47.5531 92.5254C67.3144 92.5254 80.3965 99.4106 86.4355 103.515C86.9315 103.853 87.4951 104.014 88.0542 104.014Z" fill="url(#paint6_linear)"/>
<path d="M89.6788 117.668C84.3883 114.071 73.0031 107.789 56.1982 106.107C54.6095 105.946 53.1982 107.105 53.0404 108.69C52.8811 110.276 54.0384 111.69 55.6241 111.85C71.159 113.404 81.5957 119.153 86.4354 122.441C86.9314 122.779 87.495 122.94 88.0541 122.94C88.9784 122.94 89.8847 122.498 90.4438 121.676C91.3396 120.358 90.9969 118.563 89.6788 117.668Z" fill="url(#paint7_linear)"/>
<path d="M42.3122 105.833C40.1884 105.954 38.0151 106.154 35.8523 106.426C34.2697 106.625 33.1499 108.068 33.3483 109.649C33.5317 111.108 34.7747 112.175 36.207 112.175C36.3273 112.175 36.449 112.168 36.5707 112.153C38.6058 111.897 40.6499 111.709 42.6458 111.594C44.2375 111.502 45.4519 110.137 45.3602 108.546C45.2686 106.955 43.9023 105.735 42.3122 105.833Z" fill="url(#paint8_linear)"/>
<path d="M169.337 54.5449H112.626C110.34 54.5449 108.481 56.4041 108.481 58.6902V74.0147C108.481 76.2992 110.34 78.1584 112.626 78.1584H120.448C122.043 78.1584 123.334 76.8658 123.334 75.2727C123.334 73.6795 122.043 72.3869 120.448 72.3869H114.253V60.3164H167.711V72.3869H133.876C132.281 72.3869 130.99 73.6795 130.99 75.2727C130.99 76.8658 132.281 78.1584 133.876 78.1584H169.337C171.623 78.1584 173.482 76.2992 173.482 74.0147V58.6902C173.482 56.4041 171.623 54.5449 169.337 54.5449Z" fill="url(#paint9_linear)"/>
<path d="M192.319 52.6166H186.349V42.0867C186.349 38.9574 183.803 36.4114 180.674 36.4114H99.5729C97.3741 34.5868 91.1697 29.8944 81.2425 25.916C69.937 21.386 51.4007 16.9567 27.3033 21.5844C24.7422 22.0759 22.883 24.3259 22.883 26.9335V36.4114H15.1877C12.6852 36.4114 10.6502 38.4479 10.6502 40.9489V52.6166H4.6803C2.09967 52.6166 0 54.7163 0 57.2969V169.327C0 171.907 2.09967 174.008 4.6803 174.008H81.4454C81.9504 174.008 82.4314 174.249 82.732 174.655C84.1177 176.515 86.3286 177.628 88.6492 177.628H108.35C110.67 177.628 112.882 176.515 114.268 174.655C114.568 174.25 115.051 174.008 115.554 174.008H192.319C194.9 174.008 197 171.907 197 169.327V57.2969C197 54.7163 194.9 52.6166 192.319 52.6166ZM101.386 42.1829H180.578V158.177H101.386V42.1829ZM28.6545 27.2026C51.1121 22.9476 68.3288 27.0042 78.8317 31.1675C87.7625 34.7085 93.4964 38.9244 95.6141 40.6333V155.233C88.0044 150.066 71.6309 141.37 47.6116 141.37C41.744 141.37 35.4164 141.89 28.6545 143.105V27.2026ZM16.4216 42.1829H22.883V143.501C22.883 145.121 23.5969 146.647 24.8429 147.685C26.0859 148.719 27.7076 149.146 29.2962 148.854C51.5495 144.772 68.6069 148.857 78.997 153.004C83.2655 154.709 86.772 156.541 89.4999 158.176H16.4216V42.1829ZM191.228 168.237H115.554C113.235 168.237 111.023 169.348 109.637 171.208C109.336 171.614 108.854 171.856 108.35 171.856H88.6492C88.1442 171.856 87.6633 171.614 87.3627 171.21C85.9769 169.348 83.7645 168.237 81.4454 168.237H5.77147V58.3881H10.6502V159.411C10.6502 161.912 12.6867 163.949 15.1877 163.949H180.674C183.803 163.949 186.349 161.403 186.349 158.272V58.3881H191.228V168.237Z" fill="url(#paint10_linear)"/>
<defs>
<linearGradient id="paint0_linear" x1="140.982" y1="89.7031" x2="130.975" y2="95.4048" gradientUnits="userSpaceOnUse">
<stop stop-color="#48BDEA"/>
<stop offset="1" stop-color="#6AE0D9"/>
</linearGradient>
<linearGradient id="paint1_linear" x1="140.982" y1="105.167" x2="130.975" y2="110.869" gradientUnits="userSpaceOnUse">
<stop stop-color="#48BDEA"/>
<stop offset="1" stop-color="#6AE0D9"/>
</linearGradient>
<linearGradient id="paint2_linear" x1="140.982" y1="120.63" x2="130.975" y2="126.332" gradientUnits="userSpaceOnUse">
<stop stop-color="#48BDEA"/>
<stop offset="1" stop-color="#6AE0D9"/>
</linearGradient>
<linearGradient id="paint3_linear" x1="140.982" y1="136.094" x2="130.975" y2="141.795" gradientUnits="userSpaceOnUse">
<stop stop-color="#48BDEA"/>
<stop offset="1" stop-color="#6AE0D9"/>
</linearGradient>
<linearGradient id="paint4_linear" x1="62.1343" y1="48.9033" x2="50.7106" y2="50.8325" gradientUnits="userSpaceOnUse">
<stop stop-color="#48BDEA"/>
<stop offset="1" stop-color="#6AE0D9"/>
</linearGradient>
<linearGradient id="paint5_linear" x1="62.1343" y1="67.8281" x2="50.7106" y2="69.7574" gradientUnits="userSpaceOnUse">
<stop stop-color="#48BDEA"/>
<stop offset="1" stop-color="#6AE0D9"/>
</linearGradient>
<linearGradient id="paint6_linear" x1="62.1343" y1="86.7539" x2="50.7107" y2="88.6832" gradientUnits="userSpaceOnUse">
<stop stop-color="#48BDEA"/>
<stop offset="1" stop-color="#6AE0D9"/>
</linearGradient>
<linearGradient id="paint7_linear" x1="71.9844" y1="106.092" x2="64.3512" y2="106.961" gradientUnits="userSpaceOnUse">
<stop stop-color="#48BDEA"/>
<stop offset="1" stop-color="#6AE0D9"/>
</linearGradient>
<linearGradient id="paint8_linear" x1="39.3453" y1="105.827" x2="36.9126" y2="106.061" gradientUnits="userSpaceOnUse">
<stop stop-color="#48BDEA"/>
<stop offset="1" stop-color="#6AE0D9"/>
</linearGradient>
<linearGradient id="paint9_linear" x1="140.982" y1="54.5449" x2="127.979" y2="56.3558" gradientUnits="userSpaceOnUse">
<stop stop-color="#48BDEA"/>
<stop offset="1" stop-color="#6AE0D9"/>
</linearGradient>
<linearGradient id="paint10_linear" x1="98.4998" y1="19.6229" x2="58.4864" y2="22.147" gradientUnits="userSpaceOnUse">
<stop stop-color="#48BDEA"/>
<stop offset="1" stop-color="#6AE0D9"/>
</linearGradient>
</defs>
</svg>