<svg width="18" height="18" viewBox="0 0 18 18" fill="none" xmlns="http://www.w3.org/2000/svg">
<g clip-path="url(#clip0)">
<path d="M8.44168 8.13974C8.39612 8.09369 8.33687 8.06358 8.27282 8.05401L8.27162 8.05252L7.55432 7.94812L7.23332 7.29802C7.15993 7.14948 6.98001 7.08858 6.83147 7.16197C6.77241 7.19114 6.72463 7.23895 6.69542 7.29802L6.37442 7.94812L5.65682 8.05252C5.49287 8.07633 5.37924 8.22854 5.40306 8.39253C5.41254 8.45785 5.44333 8.51826 5.49062 8.56431L6.00992 9.07041L5.88722 9.78501C5.85921 9.94833 5.96889 10.1034 6.13221 10.1314C6.14889 10.1343 6.16581 10.1357 6.18272 10.1357C6.23136 10.1358 6.27924 10.1239 6.32222 10.1012L6.96452 9.76371L7.60622 10.1012C7.75288 10.1783 7.93427 10.122 8.01137 9.97529C8.04208 9.9169 8.05266 9.85004 8.04152 9.78501L7.92002 9.07041L8.43932 8.56401C8.55715 8.44746 8.55819 8.25753 8.44168 8.13974ZM7.38722 8.75088C7.31661 8.81984 7.28439 8.9191 7.30112 9.01638L7.34732 9.28638L7.10432 9.15828C7.01691 9.1123 6.91243 9.1123 6.82502 9.15828L6.58142 9.28638L6.62792 9.01638C6.64476 8.91899 6.61254 8.81958 6.54182 8.75058L6.34472 8.55888L6.61682 8.51928C6.71454 8.5051 6.79903 8.44371 6.84272 8.35518L6.96452 8.10858L7.08602 8.35518C7.12971 8.44371 7.21419 8.5051 7.31192 8.51928L7.58402 8.55888L7.38722 8.75088Z" fill="url(#paint0_linear)"/>
<path d="M12.5171 6.45408C12.471 6.40679 12.4106 6.37601 12.3453 6.36652L11.2368 6.20572L10.7421 5.20342C10.6544 5.05488 10.463 5.00553 10.3144 5.09321C10.269 5.12006 10.231 5.15797 10.2042 5.20342L9.70922 6.20572L8.60312 6.36652C8.43914 6.39018 8.3254 6.54232 8.34906 6.70631C8.35851 6.77175 8.3893 6.83219 8.43662 6.87832L9.23732 7.65832L9.04832 8.76022C9.02035 8.92353 9.13004 9.07859 9.29335 9.10657C9.35837 9.11771 9.42524 9.10709 9.48362 9.07642L10.4736 8.55592L11.4636 9.07642C11.5649 9.12918 11.6872 9.12037 11.7798 9.05362C11.8724 8.98664 11.919 8.87291 11.8998 8.76022L11.7108 7.65832L12.5115 6.87832C12.6302 6.76271 12.6327 6.57281 12.5171 6.45408ZM11.1762 7.33762C11.1055 7.40662 11.0733 7.50603 11.0901 7.60342L11.2029 8.26132L10.6119 7.95052C10.5244 7.90443 10.4198 7.90443 10.3323 7.95052L9.74162 8.26132L9.85442 7.60342C9.87119 7.50599 9.83886 7.40658 9.76802 7.33762L9.29102 6.87262L9.95162 6.77572C10.0494 6.76147 10.1339 6.69997 10.1775 6.61132L10.473 6.01282L10.7688 6.61132C10.8124 6.6999 10.8967 6.76136 10.9944 6.77572L11.6544 6.87172L11.1762 7.33762Z" fill="url(#paint1_linear)"/>
<path d="M17.7003 2.16411C17.6812 2.16411 17.6623 2.16587 17.6436 2.16947C11.933 3.26207 6.06701 3.26207 0.3564 2.16947C0.19365 2.13831 0.0364876 2.245 0.00536261 2.40771C0.00176261 2.42638 1.05742e-07 2.44536 1.05742e-07 2.46437V12.407C-7.48943e-05 12.4964 0.0397501 12.5812 0.1086 12.6383C0.177825 12.6949 0.268463 12.7181 0.3564 12.7019C2.51651 12.2898 4.70325 12.0323 6.9 11.9312V14.0357H6.3C6.20558 14.0357 6.11666 14.0801 6.06 14.1557L5.16 15.3557C5.06059 15.4882 5.08744 15.6763 5.22 15.7757C5.27194 15.8146 5.33509 15.8357 5.4 15.8357H12.6C12.7657 15.8357 12.9 15.7013 12.9 15.5357C12.9 15.4708 12.879 15.4076 12.84 15.3557L11.94 14.1557C11.8833 14.0801 11.7944 14.0357 11.7 14.0357H11.1V11.9312C13.2968 12.0323 15.4835 12.2898 17.6436 12.7019C17.6622 12.7052 17.6811 12.7069 17.7 12.707C17.8657 12.707 18 12.5726 18 12.407V2.46437C18.0002 2.2987 17.8659 2.16426 17.7003 2.16411ZM11.55 14.6357L12 15.2357H6L6.45 14.6357H11.55ZM8.3637 13.2236C8.71523 13.575 9.28508 13.5749 9.63649 13.2234C9.80524 13.0546 9.90004 12.8257 9.9 12.587V11.8931C10.1001 11.897 10.2999 11.9036 10.5 11.9099V14.0357H7.5V11.9099C7.7001 11.9036 7.8999 11.897 8.1 11.8931V12.587C8.09925 12.8259 8.1942 13.0552 8.3637 13.2236ZM8.7 12.587V11.8859C8.89999 11.8847 9.10001 11.8847 9.3 11.8859V12.587C9.3 12.7526 9.16568 12.887 9 12.887C8.83433 12.887 8.7 12.7526 8.7 12.587ZM17.4 12.0461C11.8463 11.0277 6.15371 11.0277 0.6 12.0461V2.82527C6.15371 3.84347 11.8463 3.84347 17.4 2.82527V12.0461Z" fill="url(#paint2_linear)"/>
</g>
<defs>
<linearGradient id="paint0_linear" x1="8.26888" y1="6.25012" x2="6.1792" y2="6.73203" gradientUnits="userSpaceOnUse">
<stop stop-color="#F26A32"/>
<stop offset="1" stop-color="#FE9960"/>
</linearGradient>
<linearGradient id="paint1_linear" x1="12.2492" y1="3.85949" x2="9.40808" y2="4.51905" gradientUnits="userSpaceOnUse">
<stop stop-color="#F26A32"/>
<stop offset="1" stop-color="#FE9960"/>
</linearGradient>
<linearGradient id="paint2_linear" x1="16.5069" y1="-1.84313" x2="4.83684" y2="1.56023" gradientUnits="userSpaceOnUse">
<stop stop-color="#F26A32"/>
<stop offset="1" stop-color="#FE9960"/>
</linearGradient>
<clipPath id="clip0">
<rect width="18" height="18" fill="white"/>
</clipPath>
</defs>
</svg>
