<svg width="14" height="15" viewBox="0 0 14 15" fill="none" xmlns="http://www.w3.org/2000/svg">
<path d="M7 0C3.13438 0 0 3.15237 0 7.04018C0 10.928 3.13438 14.0804 7 14.0804C10.8656 14.0804 14 10.928 14 7.04018C14 3.15237 10.8656 0 7 0ZM10.3641 5.30685C10.3687 5.38071 10.3687 5.45771 10.3687 5.53314C10.3687 7.84006 8.62187 10.4974 5.42969 10.4974C4.44531 10.4974 3.53281 10.2098 2.76406 9.71482C2.90469 9.73054 3.03906 9.73683 3.18281 9.73683C3.99531 9.73683 4.74219 9.46025 5.3375 8.99195C4.575 8.97623 3.93437 8.47336 3.71562 7.78192C3.98281 7.8212 4.22344 7.8212 4.49844 7.75049C4.10582 7.67026 3.75293 7.45581 3.49971 7.14356C3.2465 6.83131 3.10857 6.44052 3.10938 6.03759V6.01559C3.33906 6.14602 3.60938 6.22616 3.89219 6.23716C3.65444 6.07781 3.45947 5.86191 3.32455 5.60862C3.18963 5.35533 3.11894 5.07247 3.11875 4.78512C3.11875 4.45983 3.20312 4.16282 3.35469 3.9051C3.79047 4.44464 4.33427 4.88592 4.95073 5.20025C5.56718 5.51458 6.24251 5.69493 6.93281 5.72958C6.6875 4.54312 7.56875 3.58295 8.62812 3.58295C9.12812 3.58295 9.57812 3.79353 9.89531 4.13297C10.2875 4.05911 10.6625 3.91139 10.9969 3.71338C10.8672 4.11725 10.5953 4.45826 10.2344 4.67355C10.5844 4.63584 10.9219 4.5384 11.2344 4.40169C10.9984 4.75055 10.7031 5.06013 10.3641 5.30685Z" fill="#1DA1F2"/>
</svg>
