<svg width="13" height="13" viewBox="0 0 13 13" fill="none" xmlns="http://www.w3.org/2000/svg">
<path d="M4.12034 2.31148C4.26365 2.61206 4.39992 2.89786 4.56908 3.25265C3.86678 3.04904 3.2279 2.86305 2.56214 2.67197C2.80918 2.0105 3.05075 1.37601 3.32337 0.665591C3.43849 0.907042 3.53533 1.08452 3.60504 1.26918C3.67709 1.45877 3.76191 1.50845 3.9725 1.41161C6.59795 0.237921 9.74145 1.13806 11.3329 3.50146C13.0408 6.04493 12.4726 9.5974 10.0493 11.5412C7.33891 13.7163 3.55636 13.3351 1.42909 10.6685C0.018823 8.90306 -0.20442 6.22947 0.912249 4.23774C1.15758 4.3548 1.41021 4.47437 1.67485 4.60629C0.936002 6.13391 0.852185 7.66342 1.55597 9.1908C2.05353 10.26 2.84412 11.0463 3.89798 11.5641C6.10542 12.6422 8.83063 11.9727 10.3521 9.98362C11.8534 8.01655 11.7904 5.30719 10.1899 3.48895C8.47685 1.53734 5.81964 1.42635 4.12034 2.31148Z" fill="#D3D3D3"/>
</svg>
