<svg width="18" height="18" viewBox="0 0 18 18" fill="none" xmlns="http://www.w3.org/2000/svg">
<g clip-path="url(#clip0)">
<path d="M14.8447 8.8936C14.8447 9.39148 15.2498 9.79652 15.7476 9.79652C15.9008 9.79652 16.0451 9.75806 16.1716 9.69049L16.4135 9.93236C16.465 9.98383 16.5325 10.0096 16.5999 10.0096C16.6674 10.0096 16.7349 9.98387 16.7864 9.93236C16.8893 9.82939 16.8893 9.66243 16.7864 9.5595L16.5445 9.31762C16.6121 9.19113 16.6505 9.04681 16.6505 8.89364C16.6505 8.39576 16.2455 7.99072 15.7476 7.99072C15.2497 7.99072 14.8447 8.39576 14.8447 8.8936ZM16.1232 8.8936C16.1232 8.9919 16.085 9.08123 16.0229 9.14824C16.0193 9.15147 16.0156 9.15457 16.0121 9.15805C16.0086 9.16153 16.0056 9.16525 16.0023 9.16891C15.9353 9.23093 15.8459 9.26921 15.7476 9.26921C15.5405 9.26921 15.3721 9.10074 15.3721 8.89364C15.3721 8.68653 15.5405 8.51807 15.7476 8.51807C15.9548 8.51807 16.1232 8.68653 16.1232 8.8936Z" fill="url(#paint0_linear)"/>
<path d="M17.7363 6.85397H17.0146C16.869 6.85397 16.7509 6.97202 16.7509 7.11764C16.7509 7.26326 16.869 7.38131 17.0146 7.38131H17.4727V10.6185H15.4779C15.477 10.6185 15.4762 10.6185 15.4754 10.6185H14.2355V7.38131H15.4804C15.4807 7.38131 15.481 7.38138 15.4813 7.38138C15.4816 7.38138 15.4819 7.38131 15.4823 7.38131H15.7841C15.9297 7.38131 16.0478 7.26326 16.0478 7.11764C16.0478 6.97202 15.9297 6.85397 15.7841 6.85397H15.6761C15.2426 5.5072 14.3911 4.298 13.2621 3.43246C12.0421 2.49709 10.5828 1.99801 9.04219 1.98908C9.01223 1.98838 9.04229 1.98908 8.95785 1.98908C7.70108 1.99661 6.4703 2.34036 5.39835 2.9832C5.27347 3.05808 5.23294 3.22004 5.30782 3.34495C5.3827 3.46983 5.54463 3.5104 5.66958 3.43548C6.16236 3.13996 6.69157 2.91295 7.24201 2.75841C6.71305 3.25534 6.25535 3.9753 5.90625 4.86528H4.00609C4.22241 4.6046 4.45915 4.35928 4.71639 4.13291C4.82572 4.03669 4.83634 3.87008 4.74015 3.76078C4.64396 3.65148 4.47732 3.64079 4.36802 3.73702C3.41339 4.57711 2.70967 5.65152 2.32372 6.85397H0.263672C0.118055 6.85397 0 6.97202 0 7.11764V10.8822C0 11.0278 0.118055 11.1458 0.263672 11.1458H2.3239C2.75745 12.4926 3.60886 13.7018 4.73787 14.5674C5.95793 15.5027 7.41712 16.0018 8.95785 16.0107C8.97152 16.0108 8.97834 16.0115 9.04219 16.0107C10.5829 16.0018 12.0421 15.5027 13.2622 14.5674C14.3912 13.7018 15.2426 12.4926 15.6761 11.1458H17.7363C17.8819 11.1458 18 11.0278 18 10.8822V7.11764C18 6.97202 17.8819 6.85397 17.7363 6.85397ZM13.9718 6.85397H12.6354C12.5462 6.33447 12.427 5.84544 12.2814 5.39259H14.3848C14.6877 5.84115 14.9363 6.33105 15.1199 6.85397H13.9718ZM5.9001 6.85397C5.99442 6.33134 6.12158 5.84136 6.2762 5.39259H8.73633V6.85397H5.9001ZM9.26367 5.39263H11.7238C11.8784 5.8414 12.0056 6.33137 12.0999 6.854H9.26367V5.39263ZM9.26367 2.5378C10.1486 2.68226 10.9618 3.54809 11.5217 4.86528H9.26367V2.5378ZM13.9882 4.86528H12.0938C11.7462 3.97879 11.2908 3.26111 10.7648 2.76435C12.0273 3.12572 13.1531 3.86484 13.9882 4.86528ZM8.73633 2.53808V4.86528H6.47842C7.038 3.54904 7.85081 2.68349 8.73633 2.53808ZM3.61178 5.39263H5.71859C5.57304 5.84544 5.45379 6.3345 5.3646 6.854H2.8807C3.06211 6.33615 3.30782 5.84565 3.61178 5.39263ZM3.15914 10.6185H0.527344V7.38135H13.7081V10.6185H4.38961C4.24399 10.6185 4.12594 10.7366 4.12594 10.8822C4.12594 11.0278 4.24399 11.1459 4.38961 11.1459H5.3646C5.45375 11.6654 5.57304 12.1544 5.71855 12.6073H3.61515C3.31232 12.1587 3.06373 11.6688 2.88011 11.1459H3.15911C3.30472 11.1459 3.42278 11.0278 3.42278 10.8822C3.42278 10.7366 3.30476 10.6185 3.15914 10.6185ZM8.73633 13.1346V15.462C7.85138 15.3176 7.03818 14.4518 6.47835 13.1346H8.73633ZM6.27616 12.6072C6.12158 12.1584 5.99442 11.6685 5.9001 11.1458H8.73633V12.6072H6.27616ZM9.26367 15.4618V13.1346H11.5216C10.962 14.4508 10.1492 15.3164 9.26367 15.4618ZM9.26367 12.6072V11.1459H12.0999C12.0056 11.6685 11.8784 12.1585 11.7238 12.6073H9.26367V12.6072ZM4.01179 13.1346H5.90618C6.25384 14.0211 6.70918 14.7387 7.23519 15.2355C5.9727 14.8741 4.84685 14.135 4.01179 13.1346ZM10.7639 15.2357C11.2904 14.739 11.7459 14.0212 12.0938 13.1346H13.9882C13.153 14.1353 12.0268 14.8744 10.7639 15.2357ZM14.3848 12.6072H12.2814C12.427 12.1544 12.5462 11.6653 12.6354 11.1458H13.9718H15.1199C14.9362 11.6688 14.6876 12.1587 14.3848 12.6072Z" fill="url(#paint1_linear)"/>
</g>
<defs>
<linearGradient id="paint0_linear" x1="16.6961" y1="7.39898" x2="15.3423" y2="7.69886" gradientUnits="userSpaceOnUse">
<stop stop-color="#F26A32"/>
<stop offset="1" stop-color="#FE9960"/>
</linearGradient>
<linearGradient id="paint1_linear" x1="16.5069" y1="-2.12122" x2="4.79148" y2="1.20992" gradientUnits="userSpaceOnUse">
<stop stop-color="#F26A32"/>
<stop offset="1" stop-color="#FE9960"/>
</linearGradient>
<clipPath id="clip0">
<rect width="18" height="18" fill="white"/>
</clipPath>
</defs>
</svg>
