<svg width="14" height="14" viewBox="0 0 14 14" fill="none" xmlns="http://www.w3.org/2000/svg">
<g clip-path="url(#clip0_3421_29117)">
<path d="M10.1488 8.37344C9.97852 8.28594 9.13008 7.87031 8.97227 7.81406C8.81445 7.75469 8.69883 7.72656 8.58477 7.90156C8.46914 8.075 8.14102 8.46094 8.03789 8.57813C7.93789 8.69375 7.83633 8.70781 7.66602 8.62187C6.65352 8.11562 5.98945 7.71875 5.32227 6.57344C5.1457 6.26875 5.49883 6.29062 5.82852 5.63281C5.88477 5.51719 5.85664 5.41875 5.81289 5.33125C5.76914 5.24375 5.42539 4.39687 5.28164 4.05156C5.14258 3.71562 4.99883 3.7625 4.89414 3.75625C4.79414 3.75 4.68008 3.75 4.56445 3.75C4.44883 3.75 4.26289 3.79375 4.10508 3.96406C3.94727 4.1375 3.50195 4.55469 3.50195 5.40156C3.50195 6.24844 4.11914 7.06875 4.20352 7.18437C4.29102 7.3 5.41758 9.0375 7.14727 9.78594C8.24102 10.2578 8.66914 10.2984 9.21602 10.2172C9.54883 10.1672 10.2348 9.80156 10.377 9.39688C10.5191 8.99375 10.5191 8.64844 10.477 8.57656C10.4348 8.5 10.3191 8.45625 10.1488 8.37344Z" fill="#1EA952"/>
<path d="M13.4563 4.2875C13.1032 3.44844 12.597 2.69531 11.9517 2.04844C11.3109 1.40531 10.5501 0.894097 9.71259 0.54375C8.85321 0.182813 7.94071 0 7.00009 0H6.96884C6.02196 0.0046875 5.10478 0.192188 4.24228 0.560938C3.4119 0.914877 2.65831 1.427 2.02353 2.06875C1.38446 2.71406 0.882901 3.46406 0.536026 4.3C0.176651 5.16563 -0.00459886 6.08594 8.86449e-05 7.03281C0.0053906 8.11792 0.262107 9.18704 0.750089 10.1563V12.5313C0.750089 12.7219 0.825814 12.9047 0.960606 13.0395C1.0954 13.1743 1.27821 13.25 1.46884 13.25H3.8454C4.81461 13.738 5.88373 13.9947 6.96884 14H7.00165C7.93759 14 8.8454 13.8188 9.70009 13.4641C10.5334 13.1179 11.2913 12.6126 11.9313 11.9766C12.5767 11.3375 13.0845 10.5906 13.4392 9.75781C13.8079 8.89531 13.9954 7.97813 14.0001 7.03125C14.0048 6.07969 13.8204 5.15625 13.4563 4.2875ZM11.0954 11.1313C10.0001 12.2156 8.54696 12.8125 7.00009 12.8125H6.97353C6.03134 12.8078 5.0954 12.5734 4.26884 12.1328L4.13759 12.0625H1.93759V9.8625L1.86728 9.73125C1.42665 8.90469 1.19228 7.96875 1.18759 7.02656C1.18134 5.46875 1.77665 4.00625 2.86884 2.90469C3.95946 1.80312 5.41728 1.19375 6.97509 1.1875H7.00165C7.7829 1.1875 8.54071 1.33906 9.25478 1.63906C9.95165 1.93125 10.5767 2.35156 11.1142 2.88906C11.6501 3.425 12.072 4.05156 12.3642 4.74844C12.6673 5.47031 12.8188 6.23594 12.8157 7.02656C12.8063 8.58281 12.1954 10.0406 11.0954 11.1313Z" fill="#25D366"/>
<path d="M13.4563 4.2875C13.1032 3.44844 12.597 2.69531 11.9517 2.04844C11.3109 1.40531 10.5501 0.894097 9.71259 0.54375C8.85321 0.182813 7.94071 0 7.00009 0H6.96884C6.02196 0.0046875 5.10478 0.192188 4.24228 0.560938C3.4119 0.914877 2.65831 1.427 2.02353 2.06875C1.38446 2.71406 0.882901 3.46406 0.536026 4.3C0.176651 5.16563 -0.00459886 6.08594 8.86449e-05 7.03281C0.0053906 8.11792 0.262107 9.18704 0.750089 10.1563V12.5313C0.750089 12.7219 0.825814 12.9047 0.960606 13.0395C1.0954 13.1743 1.27821 13.25 1.46884 13.25H3.8454C4.81461 13.738 5.88373 13.9947 6.96884 14H7.00165C7.93759 14 8.8454 13.8188 9.70009 13.4641C10.5334 13.1179 11.2913 12.6126 11.9313 11.9766C12.5767 11.3375 13.0845 10.5906 13.4392 9.75781C13.8079 8.89531 13.9954 7.97813 14.0001 7.03125C14.0048 6.07969 13.8204 5.15625 13.4563 4.2875ZM11.0954 11.1313C10.0001 12.2156 8.54696 12.8125 7.00009 12.8125H6.97353C6.03134 12.8078 5.0954 12.5734 4.26884 12.1328L4.13759 12.0625H1.93759V9.8625L1.86728 9.73125C1.42665 8.90469 1.19228 7.96875 1.18759 7.02656C1.18134 5.46875 1.77665 4.00625 2.86884 2.90469C3.95946 1.80312 5.41728 1.19375 6.97509 1.1875H7.00165C7.7829 1.1875 8.54071 1.33906 9.25478 1.63906C9.95165 1.93125 10.5767 2.35156 11.1142 2.88906C11.6501 3.425 12.072 4.05156 12.3642 4.74844C12.6673 5.47031 12.8188 6.23594 12.8157 7.02656C12.8063 8.58281 12.1954 10.0406 11.0954 11.1313Z" fill="black" fill-opacity="0.2"/>
</g>
<defs>
<clipPath id="clip0_3421_29117">
<rect width="14" height="14" fill="white"/>
</clipPath>
</defs>
</svg>
