<svg width="14" height="11" viewBox="0 0 14 11" fill="none" xmlns="http://www.w3.org/2000/svg">
<path d="M13.7078 1.70096C13.6281 1.37158 13.4719 1.07121 13.2547 0.829906C13.0375 0.588602 12.767 0.414827 12.4703 0.325973C11.3781 6.6143e-08 7 0 7 0C7 0 2.62187 -6.6143e-08 1.52969 0.324239C1.23284 0.412805 0.962226 0.586484 0.745009 0.827833C0.527792 1.06918 0.371624 1.3697 0.292187 1.69922C-5.96046e-08 2.91295 0 5.44444 0 5.44444C0 5.44444 -5.96046e-08 7.97594 0.292187 9.18793C0.453125 9.85722 0.928125 10.3843 1.52969 10.5629C2.62187 10.8889 7 10.8889 7 10.8889C7 10.8889 11.3781 10.8889 12.4703 10.5629C13.0734 10.3843 13.5469 9.85722 13.7078 9.18793C14 7.97594 14 5.44444 14 5.44444C14 5.44444 14 2.91295 13.7078 1.70096ZM5.60938 7.76787V3.12102L9.23438 5.42711L5.60938 7.76787Z" fill="#B6203B"/>
</svg>
