<svg width="18" height="18" viewBox="0 0 18 18" fill="none" xmlns="http://www.w3.org/2000/svg">
<g clip-path="url(#clip0)">
<path d="M11.7706 8.19129L7.79394 6.01544C7.56529 5.89034 7.29503 5.89501 7.07091 6.0278C6.84665 6.16074 6.71289 6.39557 6.71289 6.65622V10.9706C6.71289 11.23 6.84582 11.4644 7.06857 11.5975C7.18489 11.6669 7.31384 11.7018 7.44307 11.7018C7.56144 11.7018 7.6801 11.6726 7.78927 11.6138L11.766 9.47545C12.0021 9.34842 12.1495 9.10301 12.1505 8.83481C12.1515 8.56661 12.0059 8.3201 11.7706 8.19129ZM7.76771 10.4278V7.20334L10.7398 8.82959L7.76771 10.4278Z" fill="url(#paint0_linear)"/>
<path d="M17.8675 5.39745L17.8667 5.38921C17.8515 5.24432 17.6997 3.95563 17.0732 3.30016C16.3491 2.52919 15.5282 2.43553 15.1333 2.39062C15.1006 2.38692 15.0707 2.38348 15.0439 2.37991L15.0125 2.37662C12.6329 2.20358 9.0391 2.17996 9.00312 2.17982L8.99996 2.17969L8.99681 2.17982C8.96083 2.17996 5.36707 2.20358 2.96602 2.37662L2.9343 2.37991C2.90876 2.38335 2.8806 2.38651 2.84998 2.39008C2.45969 2.43512 1.64753 2.52892 0.921337 3.32776C0.324645 3.97623 0.15216 5.23732 0.134445 5.37904L0.132385 5.39745C0.127029 5.45773 0 6.89296 0 8.33382V9.68074C0 11.1216 0.127029 12.5568 0.132385 12.6172L0.133346 12.6263C0.148589 12.7689 0.3002 14.0339 0.923809 14.6897C1.60468 15.4348 2.4656 15.5334 2.92867 15.5864C3.00187 15.5948 3.0649 15.602 3.10788 15.6095L3.14949 15.6153C4.52347 15.746 8.83133 15.8104 9.01397 15.813L9.01947 15.8132L9.02496 15.813C9.06094 15.8129 12.6546 15.7893 15.0342 15.6162L15.0656 15.6129C15.0957 15.609 15.1295 15.6054 15.1666 15.6015C15.5547 15.5603 16.3624 15.4748 17.0786 14.6868C17.6753 14.0382 17.8479 12.7771 17.8655 12.6355L17.8675 12.6171C17.8729 12.5567 18.0001 11.1216 18.0001 9.68074V8.33382C17.9999 6.89296 17.8729 5.45787 17.8675 5.39745ZM16.9451 9.68074C16.9451 11.0143 16.8287 12.3878 16.8177 12.5138C16.7729 12.8611 16.5909 13.659 16.3002 13.975C15.852 14.4682 15.3915 14.5171 15.0553 14.5526C15.0147 14.5569 14.9771 14.561 14.943 14.5653C12.6414 14.7317 9.1833 14.7572 9.024 14.7582C8.84533 14.7556 4.60051 14.6906 3.26842 14.5669C3.20017 14.5558 3.12642 14.5473 3.04869 14.5385C2.65442 14.4933 2.11472 14.4315 1.69972 13.975L1.68997 13.9646C1.40432 13.667 1.22758 12.9209 1.18267 12.518C1.1743 12.4227 1.05482 11.033 1.05482 9.68074V8.33382C1.05482 7.00172 1.171 5.62981 1.18226 5.50113C1.23568 5.09203 1.42108 4.34248 1.69972 4.03954C2.16169 3.53142 2.64879 3.47511 2.97097 3.4379C3.00173 3.43433 3.03043 3.43103 3.05693 3.4276C5.39207 3.26033 8.875 3.23547 8.99996 3.23451C9.12493 3.23534 12.6066 3.26033 14.921 3.4276C14.9495 3.43117 14.9805 3.43474 15.0139 3.43858C15.3452 3.47635 15.8461 3.53348 16.3057 4.02374L16.31 4.02827C16.5956 4.32587 16.7724 5.08502 16.8173 5.49605C16.8252 5.586 16.9451 6.97865 16.9451 8.33382V9.68074Z" fill="url(#paint1_linear)"/>
</g>
<defs>
<linearGradient id="paint0_linear" x1="11.6995" y1="4.23154" x2="8.03358" y2="4.99585" gradientUnits="userSpaceOnUse">
<stop stop-color="#F26A32"/>
<stop offset="1" stop-color="#FE9960"/>
</linearGradient>
<linearGradient id="paint1_linear" x1="16.507" y1="-1.81633" x2="4.84198" y2="1.59507" gradientUnits="userSpaceOnUse">
<stop stop-color="#F26A32"/>
<stop offset="1" stop-color="#FE9960"/>
</linearGradient>
<clipPath id="clip0">
<rect width="18" height="18" fill="white"/>
</clipPath>
</defs>
</svg>
