<svg width="16" height="16" viewBox="0 0 16 16" fill="none" xmlns="http://www.w3.org/2000/svg">
<path d="M3.7 11.75C4.4 11.2612 5.09445 10.8862 5.78334 10.625C6.47222 10.3639 7.21111 10.2334 8 10.2334C8.78889 10.2334 9.53056 10.3639 10.225 10.625C10.9194 10.8862 11.6167 11.2612 12.3167 11.75C12.8056 11.15 13.1528 10.5445 13.3583 9.93337C13.5639 9.32226 13.6667 8.67782 13.6667 8.00004C13.6667 6.38893 13.125 5.04171 12.0417 3.95837C10.9583 2.87504 9.61111 2.33337 8 2.33337C6.38889 2.33337 5.04167 2.87504 3.95834 3.95837C2.875 5.04171 2.33334 6.38893 2.33334 8.00004C2.33334 8.67782 2.43889 9.32226 2.65 9.93337C2.86111 10.5445 3.21111 11.15 3.7 11.75ZM7.9969 8.50004C7.35452 8.50004 6.81389 8.27956 6.375 7.83861C5.93611 7.39765 5.71667 6.85599 5.71667 6.21361C5.71667 5.57123 5.93715 5.0306 6.3781 4.59171C6.81906 4.15282 7.36072 3.93337 8.0031 3.93337C8.64548 3.93337 9.18611 4.15385 9.625 4.59481C10.0639 5.03576 10.2833 5.57743 10.2833 6.21981C10.2833 6.86218 10.0629 7.40282 9.6219 7.84171C9.18095 8.2806 8.63928 8.50004 7.9969 8.50004ZM8.0078 14.6667C7.09149 14.6667 6.22778 14.4917 5.41667 14.1417C4.60556 13.7917 3.89722 13.3139 3.29167 12.7084C2.68611 12.1028 2.20834 11.3958 1.85834 10.5873C1.50834 9.77876 1.33334 8.91487 1.33334 7.99561C1.33334 7.07634 1.50834 6.21393 1.85834 5.40837C2.20834 4.60282 2.68611 3.89726 3.29167 3.29171C3.89722 2.68615 4.60426 2.20837 5.41277 1.85837C6.22128 1.50837 7.08517 1.33337 8.00444 1.33337C8.9237 1.33337 9.78611 1.50837 10.5917 1.85837C11.3972 2.20837 12.1028 2.68615 12.7083 3.29171C13.3139 3.89726 13.7917 4.603 14.1417 5.40891C14.4917 6.21482 14.6667 7.07593 14.6667 7.99224C14.6667 8.90855 14.4917 9.77226 14.1417 10.5834C13.7917 11.3945 13.3139 12.1028 12.7083 12.7084C12.1028 13.3139 11.397 13.7917 10.5911 14.1417C9.78522 14.4917 8.92411 14.6667 8.0078 14.6667ZM8 13.6667C8.61111 13.6667 9.20834 13.5778 9.79167 13.4C10.375 13.2223 10.95 12.9112 11.5167 12.4667C10.95 12.0667 10.3722 11.7612 9.78334 11.55C9.19445 11.3389 8.6 11.2334 8 11.2334C7.4 11.2334 6.80556 11.3389 6.21667 11.55C5.62778 11.7612 5.05 12.0667 4.48334 12.4667C5.05 12.9112 5.625 13.2223 6.20834 13.4C6.79167 13.5778 7.38889 13.6667 8 13.6667ZM8 7.50004C8.37778 7.50004 8.68611 7.3806 8.925 7.14171C9.16389 6.90282 9.28334 6.59448 9.28334 6.21671C9.28334 5.83893 9.16389 5.5306 8.925 5.29171C8.68611 5.05282 8.37778 4.93337 8 4.93337C7.62222 4.93337 7.31389 5.05282 7.075 5.29171C6.83611 5.5306 6.71667 5.83893 6.71667 6.21671C6.71667 6.59448 6.83611 6.90282 7.075 7.14171C7.31389 7.3806 7.62222 7.50004 8 7.50004Z" fill="white"/>
</svg>
