<svg width="16" height="16" viewBox="0 0 16 16" fill="green" xmlns="http://www.w3.org/2000/svg">
<path d="M5.33329 11.9999H10.6666V10.6666H5.33329V11.9999ZM5.33329 9.33325H10.6666V7.99992H5.33329V9.33325ZM3.99996 14.6666C3.63329 14.6666 3.3194 14.536 3.05829 14.2749C2.79718 14.0138 2.66663 13.6999 2.66663 13.3333V2.66659C2.66663 2.29992 2.79718 1.98603 3.05829 1.72492C3.3194 1.46381 3.63329 1.33325 3.99996 1.33325H9.33329L13.3333 5.33325V13.3333C13.3333 13.6999 13.2027 14.0138 12.9416 14.2749C12.6805 14.536 12.3666 14.6666 12 14.6666H3.99996ZM8.66663 5.99992V2.66659H3.99996V13.3333H12V5.99992H8.66663Z" fill="#00AB4B"/>
</svg>
