<svg width="64" height="64" viewBox="0 0 64 64" fill="none" xmlns="http://www.w3.org/2000/svg">
<path d="M41.2001 40.1333L44.1334 37.3333L38.5334 31.7333C39.0223 30.9778 39.389 30.1778 39.6334 29.3333C39.8779 28.4889 40.0001 27.6 40.0001 26.6667C40.0001 24.0444 39.0779 21.8333 37.2334 20.0333C35.389 18.2333 33.2001 17.3333 30.6667 17.3333C28.1334 17.3333 25.9445 18.2333 24.1001 20.0333C22.2556 21.8333 21.3334 24.0444 21.3334 26.6667C21.3334 29.2889 22.2556 31.5 24.1001 33.3C25.9445 35.1 28.1334 36 30.6667 36C31.6001 36 32.4779 35.8778 33.3001 35.6333C34.1223 35.3889 34.9334 35.0222 35.7334 34.5333L41.2001 40.1333ZM30.6667 32C29.2001 32 27.9445 31.4778 26.9001 30.4333C25.8556 29.3889 25.3334 28.1333 25.3334 26.6667C25.3334 25.2 25.8556 23.9444 26.9001 22.9C27.9445 21.8556 29.2001 21.3333 30.6667 21.3333C32.089 21.3333 33.3334 21.8556 34.4001 22.9C35.4668 23.9444 36.0001 25.2 36.0001 26.6667C36.0001 28.1333 35.4779 29.3889 34.4334 30.4333C33.389 31.4778 32.1334 32 30.6667 32ZM5.33341 56C4.57786 56 3.94453 55.7444 3.43341 55.2333C2.9223 54.7222 2.66675 54.0889 2.66675 53.3333C2.66675 52.5778 2.9223 51.9444 3.43341 51.4333C3.94453 50.9222 4.57786 50.6667 5.33341 50.6667H58.6668C59.4223 50.6667 60.0556 50.9222 60.5667 51.4333C61.0779 51.9444 61.3334 52.5778 61.3334 53.3333C61.3334 54.0889 61.0779 54.7222 60.5667 55.2333C60.0556 55.7444 59.4223 56 58.6668 56H5.33341ZM10.6667 48C9.20008 48 7.94453 47.4778 6.90008 46.4333C5.85564 45.3889 5.33341 44.1333 5.33341 42.6667V13.3333C5.33341 11.8667 5.85564 10.6111 6.90008 9.56667C7.94453 8.52222 9.20008 8 10.6667 8H53.3334C54.8001 8 56.0556 8.52222 57.1001 9.56667C58.1445 10.6111 58.6668 11.8667 58.6668 13.3333V42.6667C58.6668 44.1333 58.1445 45.3889 57.1001 46.4333C56.0556 47.4778 54.8001 48 53.3334 48H10.6667ZM10.6667 42.6667H53.3334V13.3333H10.6667V42.6667Z" fill="#EF233C"/>
</svg>
