<svg width="16" height="16" viewBox="0 0 16 16" fill="none" xmlns="http://www.w3.org/2000/svg">
<g clip-path="url(#clip0_1_10132)">
<path d="M10.291 10.1761H9.70383L9.49571 9.97541C10.2241 9.12807 10.6627 8.02802 10.6627 6.83133C10.6627 4.16295 8.49971 2 5.83133 2C3.16295 2 1 4.16295 1 6.83133C1 9.49971 3.16295 11.6627 5.83133 11.6627C7.02802 11.6627 8.12807 11.2241 8.97541 10.4957L9.1761 10.7038V11.291L12.8925 15L14 13.8925L10.291 10.1761ZM5.83133 10.1761C3.98056 10.1761 2.48656 8.6821 2.48656 6.83133C2.48656 4.98056 3.98056 3.48656 5.83133 3.48656C7.6821 3.48656 9.1761 4.98056 9.1761 6.83133C9.1761 8.6821 7.6821 10.1761 5.83133 10.1761Z" fill="white"/>
</g>
<defs>
<clipPath id="clip0_1_10132">
<rect width="16" height="16" fill="white"/>
</clipPath>
</defs>
</svg>
